
<svg xmlns="http://www.w3.org/2000/svg" xmlns:xlink="http://www.w3.org/1999/xlink" width="378" zoomAndPan="magnify" viewBox="0 0 283.5 283.500005" height="378" preserveAspectRatio="xMidYMid meet" version="1.0"><defs><clipPath id="6ef75f93a9"><path d="M 8.15625 12 L 271.691406 12 L 271.691406 274.847656 L 8.15625 274.847656 Z M 8.15625 12 " clip-rule="nonzero"/></clipPath><clipPath id="f16c9c738b"><path d="M 20.136719 23 L 262.707031 23 L 262.707031 265 L 20.136719 265 Z M 20.136719 23 " clip-rule="nonzero"/></clipPath><clipPath id="0f9e8fb401"><path d="M 30.164062 34.203125 L 252.523438 34.203125 L 252.523438 256.5625 L 30.164062 256.5625 Z M 30.164062 34.203125 " clip-rule="nonzero"/></clipPath></defs><g clip-path="url(#6ef75f93a9)"><path fill="#bca0dd" d="M 126.226562 12.082031 C 122.253906 12.5 120.183594 14.945312 118.816406 16.828125 C 117.449219 18.710938 116.683594 20.011719 113.953125 20.59375 C 111.21875 21.175781 109.992188 20.300781 107.976562 19.136719 C 105.960938 17.972656 103.066406 16.574219 99.265625 17.808594 C 95.464844 19.042969 93.941406 21.875 92.996094 24.003906 C 92.050781 26.128906 91.574219 27.554688 89.023438 28.6875 C 86.46875 29.824219 85.089844 29.222656 82.878906 28.5 C 80.664062 27.78125 77.550781 27.027344 74.089844 29.027344 C 70.628906 31.023438 69.726562 34.101562 69.246094 36.378906 C 68.761719 38.65625 68.589844 40.15625 66.332031 41.796875 C 64.070312 43.441406 62.589844 43.132812 60.277344 42.886719 C 57.960938 42.644531 54.753906 42.554688 51.785156 45.226562 C 48.816406 47.902344 48.574219 51.105469 48.574219 53.429688 C 48.578125 55.757812 48.71875 57.261719 46.851562 59.335938 C 44.980469 61.414062 43.476562 61.421875 41.164062 61.664062 C 38.847656 61.90625 35.683594 62.476562 33.335938 65.707031 C 30.988281 68.941406 31.421875 72.121094 31.910156 74.398438 C 32.394531 76.671875 32.847656 78.113281 31.453125 80.53125 C 30.054688 82.949219 28.582031 83.28125 26.371094 84 C 24.15625 84.714844 21.179688 85.925781 19.554688 89.578125 C 17.925781 93.226562 19.011719 96.25 19.960938 98.375 C 20.90625 100.5 21.65625 101.824219 20.792969 104.480469 C 19.929688 107.136719 18.558594 107.757812 16.539062 108.917969 C 14.523438 110.082031 11.871094 111.886719 11.042969 115.796875 C 10.210938 119.703125 11.890625 122.433594 13.261719 124.316406 C 14.628906 126.199219 15.632812 127.335938 15.339844 130.113281 C 15.050781 132.890625 13.832031 133.777344 12.101562 135.335938 C 10.371094 136.890625 8.15625 139.214844 8.15625 143.210938 C 8.15625 147.207031 10.371094 149.535156 12.101562 151.089844 C 13.832031 152.644531 15.050781 153.535156 15.339844 156.3125 C 15.632812 159.089844 14.628906 160.226562 13.261719 162.109375 C 11.890625 163.988281 10.210938 166.71875 11.042969 170.628906 C 11.871094 174.539062 14.523438 176.34375 16.539062 177.507812 C 18.558594 178.667969 19.929688 179.289062 20.792969 181.945312 C 21.65625 184.601562 20.90625 185.921875 19.960938 188.046875 C 19.011719 190.175781 17.925781 193.195312 19.554688 196.847656 C 21.179688 200.496094 24.15625 201.707031 26.371094 202.425781 C 28.582031 203.144531 30.054688 203.476562 31.453125 205.894531 C 32.847656 208.3125 32.394531 209.75 31.910156 212.027344 C 31.421875 214.304688 30.988281 217.484375 33.335938 220.71875 C 35.683594 223.949219 38.847656 224.519531 41.164062 224.761719 C 43.476562 225 44.980469 225.011719 46.851562 227.089844 C 48.71875 229.164062 48.578125 230.667969 48.574219 232.992188 C 48.574219 235.320312 48.816406 238.523438 51.785156 241.199219 C 54.753906 243.871094 57.960938 243.78125 60.277344 243.535156 C 62.589844 243.292969 64.070312 242.984375 66.332031 244.625 C 68.589844 246.269531 68.761719 247.769531 69.246094 250.046875 C 69.726562 252.324219 70.628906 255.402344 74.089844 257.398438 C 77.550781 259.398438 80.664062 258.644531 82.878906 257.921875 C 85.089844 257.203125 86.46875 256.597656 89.023438 257.734375 C 91.574219 258.871094 92.050781 260.296875 92.996094 262.421875 C 93.941406 264.550781 95.464844 267.378906 99.265625 268.613281 C 103.066406 269.851562 105.960938 268.453125 107.976562 267.289062 C 109.992188 266.121094 111.21875 265.25 113.953125 265.832031 C 116.683594 266.410156 117.449219 267.710938 118.816406 269.597656 C 120.183594 271.480469 122.253906 273.925781 126.226562 274.34375 C 130.203125 274.761719 132.742188 272.800781 134.472656 271.242188 C 136.199219 269.683594 137.21875 268.566406 140.011719 268.566406 C 142.804688 268.566406 143.820312 269.683594 145.550781 271.242188 C 147.277344 272.800781 149.820312 274.761719 153.792969 274.34375 C 157.769531 273.925781 159.847656 271.480469 161.214844 269.597656 C 162.582031 267.710938 163.339844 266.410156 166.070312 265.832031 C 168.804688 265.25 170.03125 266.121094 172.046875 267.289062 C 174.058594 268.453125 176.953125 269.851562 180.753906 268.613281 C 184.554688 267.378906 186.082031 264.550781 187.027344 262.421875 C 187.972656 260.296875 188.449219 258.871094 191 257.734375 C 193.550781 256.597656 194.929688 257.203125 197.144531 257.921875 C 199.355469 258.644531 202.480469 259.398438 205.941406 257.398438 C 209.402344 255.402344 210.304688 252.324219 210.789062 250.046875 C 211.269531 247.769531 211.429688 246.269531 213.691406 244.625 C 215.949219 242.984375 217.429688 243.292969 219.746094 243.535156 C 222.058594 243.78125 225.265625 243.871094 228.238281 241.199219 C 231.207031 238.523438 231.449219 235.320312 231.449219 232.992188 C 231.445312 230.667969 231.300781 229.164062 233.171875 227.089844 C 235.039062 225.011719 236.554688 225 238.867188 224.761719 C 241.183594 224.519531 244.335938 223.949219 246.6875 220.71875 C 249.035156 217.484375 248.609375 214.304688 248.125 212.027344 C 247.636719 209.75 247.183594 208.3125 248.578125 205.894531 C 249.976562 203.476562 251.449219 203.144531 253.664062 202.425781 C 255.875 201.707031 258.84375 200.496094 260.46875 196.847656 C 262.09375 193.195312 261.011719 190.175781 260.0625 188.046875 C 259.113281 185.921875 258.367188 184.601562 259.230469 181.945312 C 260.09375 179.289062 261.476562 178.667969 263.492188 177.507812 C 265.507812 176.34375 268.148438 174.539062 268.980469 170.628906 C 269.8125 166.71875 268.128906 163.988281 266.761719 162.109375 C 265.390625 160.226562 264.386719 159.089844 264.679688 156.3125 C 264.972656 153.535156 266.191406 152.644531 267.921875 151.089844 C 269.652344 149.535156 271.863281 147.207031 271.863281 143.210938 C 271.863281 139.214844 269.652344 136.890625 267.921875 135.335938 C 266.191406 133.777344 264.972656 132.890625 264.679688 130.113281 C 264.386719 127.335938 265.390625 126.199219 266.761719 124.316406 C 268.128906 122.433594 269.8125 119.703125 268.980469 115.796875 C 268.148438 111.886719 265.507812 110.082031 263.492188 108.917969 C 261.476562 107.757812 260.09375 107.136719 259.230469 104.480469 C 258.367188 101.824219 259.113281 100.5 260.0625 98.375 C 261.011719 96.25 262.09375 93.226562 260.46875 89.578125 C 258.84375 85.925781 255.875 84.714844 253.664062 84 C 251.449219 83.28125 249.976562 82.949219 248.578125 80.53125 C 247.183594 78.113281 247.636719 76.671875 248.125 74.398438 C 248.609375 72.121094 249.035156 68.941406 246.6875 65.707031 C 244.335938 62.476562 241.183594 61.90625 238.867188 61.664062 C 236.554688 61.421875 235.039062 61.414062 233.171875 59.335938 C 231.300781 57.261719 231.445312 55.757812 231.449219 53.429688 C 231.449219 51.105469 231.207031 47.902344 228.238281 45.226562 C 225.265625 42.554688 222.058594 42.644531 219.746094 42.886719 C 217.429688 43.132812 215.949219 43.441406 213.691406 41.796875 C 211.429688 40.15625 211.269531 38.65625 210.789062 36.378906 C 210.304688 34.101562 209.402344 31.023438 205.941406 29.027344 C 202.480469 27.027344 199.355469 27.78125 197.144531 28.5 C 194.929688 29.222656 193.550781 29.824219 191 28.6875 C 188.449219 27.554688 187.972656 26.128906 187.027344 24.003906 C 186.082031 21.875 184.554688 19.042969 180.753906 17.808594 C 176.953125 16.574219 174.058594 17.972656 172.046875 19.136719 C 170.03125 20.300781 168.804688 21.175781 166.070312 20.59375 C 163.339844 20.011719 162.582031 18.710938 161.214844 16.828125 C 159.847656 14.945312 157.769531 12.5 153.792969 12.082031 C 149.820312 11.664062 147.277344 13.625 145.550781 15.183594 C 143.820312 16.742188 142.804688 17.859375 140.011719 17.859375 C 137.21875 17.859375 136.199219 16.742188 134.472656 15.183594 C 132.742188 13.625 130.203125 11.664062 126.226562 12.082031 Z M 126.625 15.835938 C 129.40625 15.546875 130.257812 16.476562 131.9375 17.988281 C 133.613281 19.5 136.011719 21.632812 140.011719 21.632812 C 144.011719 21.632812 146.410156 19.5 148.085938 17.988281 C 149.765625 16.476562 150.617188 15.546875 153.398438 15.835938 C 156.179688 16.128906 156.828125 17.21875 158.152344 19.046875 C 159.480469 20.875 161.375 23.457031 165.289062 24.289062 C 169.199219 25.121094 171.992188 23.539062 173.949219 22.40625 C 175.902344 21.277344 176.925781 20.542969 179.585938 21.40625 C 182.246094 22.269531 182.652344 23.476562 183.570312 25.539062 C 184.484375 27.601562 185.8125 30.519531 189.464844 32.148438 C 193.117188 33.773438 196.175781 32.796875 198.324219 32.097656 C 200.46875 31.398438 201.628906 30.898438 204.050781 32.296875 C 206.472656 33.695312 206.613281 34.953125 207.082031 37.160156 C 207.550781 39.371094 208.238281 42.507812 211.472656 44.859375 C 214.707031 47.210938 217.894531 46.890625 220.140625 46.652344 C 222.386719 46.414062 223.632812 46.167969 225.710938 48.039062 C 227.789062 49.910156 227.671875 51.164062 227.671875 53.421875 C 227.671875 55.679688 227.679688 58.890625 230.355469 61.863281 C 233.035156 64.835938 236.226562 65.1875 238.472656 65.421875 C 240.71875 65.65625 241.980469 65.675781 243.625 67.9375 C 245.269531 70.199219 244.886719 71.40625 244.417969 73.613281 C 243.945312 75.824219 243.300781 78.960938 245.300781 82.421875 C 247.300781 85.886719 250.34375 86.898438 252.492188 87.59375 C 254.640625 88.292969 255.875 88.570312 257.011719 91.121094 C 258.148438 93.675781 257.523438 94.777344 256.605469 96.839844 C 255.683594 98.902344 254.398438 101.835938 255.632812 105.640625 C 256.871094 109.441406 259.644531 111.070312 261.597656 112.199219 C 263.554688 113.328125 264.703125 113.851562 265.285156 116.589844 C 265.867188 119.324219 265.027344 120.269531 263.699219 122.097656 C 262.371094 123.921875 260.507812 126.523438 260.925781 130.5 C 261.34375 134.476562 263.714844 136.640625 265.394531 138.148438 C 267.074219 139.660156 268.089844 140.414062 268.089844 143.210938 C 268.089844 146.007812 267.074219 146.765625 265.394531 148.277344 C 263.714844 149.785156 261.34375 151.949219 260.925781 155.925781 C 260.507812 159.902344 262.371094 162.5 263.699219 164.328125 C 265.027344 166.152344 265.867188 167.101562 265.285156 169.835938 C 264.703125 172.570312 263.554688 173.097656 261.597656 174.226562 C 259.644531 175.355469 256.871094 176.980469 255.632812 180.785156 C 254.398438 184.589844 255.683594 187.523438 256.605469 189.585938 C 257.523438 191.648438 258.148438 192.746094 257.011719 195.300781 C 255.875 197.855469 254.640625 198.132812 252.492188 198.828125 C 250.34375 199.523438 247.300781 200.539062 245.300781 204 C 243.300781 207.464844 243.945312 210.601562 244.417969 212.808594 C 244.886719 215.019531 245.269531 216.226562 243.625 218.488281 C 241.980469 220.75 240.71875 220.769531 238.472656 221.003906 C 236.226562 221.238281 233.035156 221.589844 230.355469 224.5625 C 227.679688 227.535156 227.671875 230.746094 227.671875 233.003906 C 227.671875 235.261719 227.789062 236.511719 225.710938 238.382812 C 223.632812 240.253906 222.386719 240.007812 220.140625 239.769531 C 217.894531 239.535156 214.707031 239.214844 211.472656 241.566406 C 208.238281 243.914062 207.550781 247.054688 207.082031 249.261719 C 206.613281 251.472656 206.472656 252.730469 204.050781 254.128906 C 201.628906 255.527344 200.46875 255.027344 198.324219 254.328125 C 196.175781 253.628906 193.117188 252.652344 189.464844 254.277344 C 185.8125 255.902344 184.484375 258.824219 183.570312 260.886719 C 182.652344 262.949219 182.246094 264.152344 179.585938 265.019531 C 176.925781 265.882812 175.902344 265.148438 173.949219 264.015625 C 171.992188 262.886719 169.199219 261.304688 165.289062 262.132812 C 161.375 262.964844 159.480469 265.546875 158.152344 267.375 C 156.828125 269.203125 156.179688 270.292969 153.398438 270.585938 C 150.617188 270.878906 149.765625 269.949219 148.085938 268.4375 C 146.410156 266.925781 144.011719 264.789062 140.011719 264.789062 C 136.011719 264.789062 133.613281 266.925781 131.9375 268.4375 C 130.257812 269.949219 129.40625 270.878906 126.625 270.585938 C 123.84375 270.292969 123.203125 269.203125 121.878906 267.375 C 120.550781 265.546875 118.644531 262.964844 114.734375 262.132812 C 110.824219 261.304688 108.039062 262.886719 106.085938 264.015625 C 104.128906 265.148438 103.09375 265.882812 100.4375 265.019531 C 97.777344 264.152344 97.371094 262.949219 96.453125 260.886719 C 95.535156 258.824219 94.21875 255.902344 90.566406 254.277344 C 86.914062 252.652344 83.855469 253.628906 81.710938 254.328125 C 79.5625 255.027344 78.394531 255.527344 75.972656 254.128906 C 73.550781 252.730469 73.40625 251.472656 72.941406 249.261719 C 72.472656 247.054688 71.785156 243.914062 68.550781 241.566406 C 65.316406 239.214844 62.125 239.535156 59.878906 239.769531 C 57.636719 240.007812 56.390625 240.253906 54.3125 238.382812 C 52.234375 236.511719 52.359375 235.261719 52.359375 233.003906 C 52.363281 230.746094 52.339844 227.535156 49.664062 224.5625 C 46.988281 221.589844 43.796875 221.238281 41.550781 221.003906 C 39.304688 220.769531 38.039062 220.75 36.398438 218.488281 C 34.753906 216.226562 35.132812 215.019531 35.605469 212.808594 C 36.074219 210.601562 36.722656 207.464844 34.722656 204 C 32.722656 200.539062 29.675781 199.523438 27.527344 198.828125 C 25.382812 198.132812 24.148438 197.855469 23.011719 195.300781 C 21.875 192.746094 22.496094 191.648438 23.417969 189.585938 C 24.335938 187.523438 25.625 184.589844 24.386719 180.785156 C 23.152344 176.980469 20.378906 175.355469 18.421875 174.226562 C 16.464844 173.097656 15.320312 172.570312 14.738281 169.835938 C 14.15625 167.101562 14.992188 166.152344 16.324219 164.328125 C 17.652344 162.5 19.523438 159.902344 19.105469 155.925781 C 18.6875 151.949219 16.316406 149.785156 14.636719 148.277344 C 12.957031 146.765625 11.941406 146.007812 11.941406 143.210938 C 11.941406 140.414062 12.957031 139.660156 14.636719 138.148438 C 16.316406 136.640625 18.6875 134.476562 19.105469 130.5 C 19.523438 126.523438 17.652344 123.921875 16.324219 122.097656 C 14.992188 120.269531 14.15625 119.324219 14.738281 116.589844 C 15.320312 113.851562 16.464844 113.328125 18.421875 112.199219 C 20.378906 111.070312 23.152344 109.441406 24.386719 105.640625 C 25.625 101.835938 24.335938 98.902344 23.417969 96.839844 C 22.496094 94.777344 21.875 93.675781 23.011719 91.121094 C 24.148438 88.570312 25.382812 88.292969 27.527344 87.59375 C 29.675781 86.898438 32.722656 85.886719 34.722656 82.421875 C 36.722656 78.960938 36.074219 75.824219 35.605469 73.613281 C 35.132812 71.40625 34.753906 70.199219 36.398438 67.9375 C 38.039062 65.675781 39.304688 65.65625 41.550781 65.421875 C 43.796875 65.1875 46.988281 64.835938 49.664062 61.863281 C 52.339844 58.890625 52.363281 55.679688 52.359375 53.421875 C 52.359375 51.164062 52.234375 49.910156 54.3125 48.039062 C 56.390625 46.167969 57.636719 46.414062 59.878906 46.652344 C 62.125 46.890625 65.316406 47.210938 68.550781 44.859375 C 71.785156 42.507812 72.472656 39.371094 72.941406 37.160156 C 73.40625 34.953125 73.550781 33.695312 75.972656 32.296875 C 78.394531 30.898438 79.5625 31.398438 81.710938 32.097656 C 83.855469 32.796875 86.914062 33.773438 90.566406 32.148438 C 94.21875 30.519531 95.535156 27.601562 96.453125 25.539062 C 97.371094 23.476562 97.777344 22.269531 100.4375 21.40625 C 103.09375 20.542969 104.128906 21.277344 106.085938 22.40625 C 108.039062 23.539062 110.824219 25.121094 114.734375 24.289062 C 118.644531 23.457031 120.550781 20.875 121.878906 19.046875 C 123.203125 17.21875 123.84375 16.128906 126.625 15.835938 Z M 126.625 15.835938 " fill-opacity="1" fill-rule="nonzero"/></g><g clip-path="url(#f16c9c738b)"><path fill="#bca0dd" d="M 128.851562 23.347656 C 125.191406 23.734375 123.285156 25.984375 122.027344 27.71875 C 120.769531 29.453125 120.0625 30.648438 117.546875 31.183594 C 115.03125 31.71875 113.898438 30.917969 112.046875 29.84375 C 110.191406 28.769531 107.523438 27.484375 104.027344 28.621094 C 100.527344 29.757812 99.121094 32.363281 98.25 34.324219 C 97.378906 36.28125 96.941406 37.59375 94.59375 38.636719 C 92.242188 39.683594 90.972656 39.128906 88.9375 38.464844 C 86.898438 37.800781 84.03125 37.109375 80.84375 38.949219 C 77.65625 40.789062 76.824219 43.621094 76.382812 45.71875 C 75.9375 47.816406 75.78125 49.195312 73.699219 50.707031 C 71.617188 52.21875 70.257812 51.9375 68.125 51.710938 C 65.996094 51.488281 63.042969 51.402344 60.308594 53.867188 C 57.574219 56.328125 57.347656 59.277344 57.351562 61.417969 C 57.351562 63.5625 57.484375 64.945312 55.761719 66.855469 C 54.042969 68.769531 52.65625 68.777344 50.527344 69 C 48.394531 69.222656 45.480469 69.746094 43.320312 72.722656 C 41.15625 75.699219 41.558594 78.628906 42.003906 80.722656 C 42.453125 82.820312 42.871094 84.144531 41.585938 86.371094 C 40.300781 88.597656 38.945312 88.902344 36.90625 89.566406 C 34.867188 90.226562 32.125 91.339844 30.628906 94.703125 C 29.132812 98.0625 30.128906 100.847656 31.003906 102.804688 C 31.875 104.761719 32.5625 105.976562 31.769531 108.421875 C 30.972656 110.867188 29.710938 111.441406 27.855469 112.511719 C 26 113.582031 23.558594 115.242188 22.792969 118.839844 C 22.027344 122.441406 23.574219 124.953125 24.835938 126.6875 C 26.097656 128.421875 27.019531 129.46875 26.75 132.023438 C 26.480469 134.582031 25.359375 135.398438 23.769531 136.832031 C 22.175781 138.265625 20.136719 140.40625 20.136719 144.085938 C 20.136719 147.765625 22.175781 149.90625 23.769531 151.339844 C 25.359375 152.773438 26.480469 153.589844 26.75 156.148438 C 27.019531 158.703125 26.097656 159.75 24.835938 161.484375 C 23.574219 163.214844 22.027344 165.730469 22.792969 169.328125 C 23.558594 172.929688 26 174.589844 27.855469 175.660156 C 29.710938 176.730469 30.972656 177.304688 31.769531 179.75 C 32.5625 182.195312 31.875 183.410156 31.003906 185.367188 C 30.128906 187.324219 29.132812 190.109375 30.628906 193.46875 C 32.125 196.832031 34.867188 197.945312 36.90625 198.605469 C 38.945312 199.265625 40.300781 199.574219 41.585938 201.800781 C 42.871094 204.027344 42.453125 205.351562 42.003906 207.449219 C 41.558594 209.542969 41.15625 212.472656 43.320312 215.449219 C 45.480469 218.425781 48.394531 218.949219 50.527344 219.171875 C 52.65625 219.394531 54.042969 219.402344 55.761719 221.316406 C 57.484375 223.226562 57.351562 224.609375 57.351562 226.753906 C 57.347656 228.894531 57.574219 231.84375 60.308594 234.304688 C 63.042969 236.769531 65.996094 236.683594 68.125 236.460938 C 70.257812 236.234375 71.617188 235.953125 73.699219 237.464844 C 75.78125 238.976562 75.9375 240.355469 76.382812 242.453125 C 76.824219 244.550781 77.65625 247.382812 80.84375 249.222656 C 84.03125 251.0625 86.898438 250.371094 88.9375 249.707031 C 90.972656 249.042969 92.242188 248.488281 94.59375 249.53125 C 96.941406 250.578125 97.378906 251.890625 98.25 253.847656 C 99.121094 255.808594 100.527344 258.414062 104.027344 259.550781 C 107.523438 260.6875 110.191406 259.402344 112.046875 258.328125 C 113.898438 257.253906 115.03125 256.453125 117.546875 256.988281 C 120.0625 257.523438 120.769531 258.71875 122.027344 260.453125 C 123.285156 262.1875 125.191406 264.4375 128.851562 264.824219 C 132.507812 265.207031 134.847656 263.402344 136.441406 261.96875 C 138.03125 260.535156 138.96875 259.503906 141.539062 259.503906 C 144.113281 259.503906 145.050781 260.535156 146.640625 261.96875 C 148.230469 263.402344 150.570312 265.207031 154.230469 264.824219 C 157.890625 264.4375 159.804688 262.1875 161.066406 260.453125 C 162.324219 258.71875 163.019531 257.523438 165.535156 256.988281 C 168.050781 256.453125 169.179688 257.253906 171.035156 258.328125 C 172.890625 259.402344 175.554688 260.6875 179.054688 259.550781 C 182.554688 258.414062 183.960938 255.808594 184.832031 253.847656 C 185.699219 251.890625 186.140625 250.578125 188.488281 249.53125 C 190.839844 248.488281 192.109375 249.042969 194.144531 249.707031 C 196.183594 250.371094 199.0625 251.0625 202.246094 249.222656 C 205.433594 247.382812 206.265625 244.550781 206.707031 242.453125 C 207.152344 240.355469 207.300781 238.976562 209.382812 237.464844 C 211.460938 235.953125 212.824219 236.234375 214.957031 236.460938 C 217.085938 236.683594 220.039062 236.769531 222.773438 234.304688 C 225.507812 231.84375 225.730469 228.894531 225.730469 226.753906 C 225.730469 224.609375 225.597656 223.226562 227.316406 221.316406 C 229.039062 219.402344 230.433594 219.394531 232.5625 219.171875 C 234.695312 218.949219 237.601562 218.425781 239.761719 215.449219 C 241.925781 212.472656 241.53125 209.542969 241.085938 207.449219 C 240.636719 205.351562 240.21875 204.027344 241.503906 201.800781 C 242.789062 199.574219 244.148438 199.269531 246.183594 198.605469 C 248.222656 197.945312 250.957031 196.832031 252.453125 193.46875 C 253.949219 190.109375 252.953125 187.324219 252.078125 185.367188 C 251.207031 183.410156 250.519531 182.195312 251.3125 179.75 C 252.105469 177.304688 253.378906 176.730469 255.234375 175.660156 C 257.09375 174.589844 259.523438 172.929688 260.289062 169.328125 C 261.054688 165.730469 259.507812 163.214844 258.246094 161.484375 C 256.984375 159.75 256.0625 158.703125 256.332031 156.148438 C 256.597656 153.589844 257.71875 152.773438 259.3125 151.339844 C 260.90625 149.90625 262.945312 147.765625 262.945312 144.085938 C 262.945312 140.40625 260.90625 138.265625 259.3125 136.832031 C 257.71875 135.398438 256.597656 134.582031 256.332031 132.023438 C 256.0625 129.46875 256.984375 128.421875 258.246094 126.6875 C 259.507812 124.953125 261.054688 122.441406 260.289062 118.839844 C 259.523438 115.242188 257.09375 113.582031 255.234375 112.511719 C 253.378906 111.441406 252.105469 110.867188 251.3125 108.421875 C 250.519531 105.976562 251.207031 104.761719 252.078125 102.804688 C 252.953125 100.847656 253.949219 98.0625 252.453125 94.703125 C 250.957031 91.339844 248.222656 90.226562 246.183594 89.566406 C 244.148438 88.902344 242.789062 88.597656 241.503906 86.371094 C 240.21875 84.144531 240.636719 82.820312 241.085938 80.722656 C 241.53125 78.628906 241.925781 75.699219 239.761719 72.722656 C 237.601562 69.746094 234.695312 69.222656 232.5625 69 C 230.433594 68.777344 229.039062 68.769531 227.316406 66.855469 C 225.597656 64.945312 225.730469 63.5625 225.730469 61.417969 C 225.730469 59.277344 225.507812 56.328125 222.773438 53.867188 C 220.039062 51.402344 217.085938 51.488281 214.957031 51.710938 C 212.824219 51.9375 211.460938 52.21875 209.382812 50.707031 C 207.300781 49.195312 207.152344 47.816406 206.707031 45.71875 C 206.265625 43.621094 205.433594 40.789062 202.246094 38.949219 C 199.0625 37.109375 196.183594 37.800781 194.144531 38.464844 C 192.109375 39.128906 190.839844 39.683594 188.488281 38.636719 C 186.140625 37.59375 185.703125 36.28125 184.832031 34.324219 C 183.960938 32.363281 182.554688 29.757812 179.054688 28.621094 C 175.554688 27.484375 172.890625 28.769531 171.035156 29.84375 C 169.179688 30.917969 168.050781 31.71875 165.535156 31.183594 C 163.019531 30.648438 162.324219 29.453125 161.066406 27.71875 C 159.804688 25.984375 157.890625 23.734375 154.230469 23.347656 C 150.570312 22.964844 148.230469 24.769531 146.640625 26.203125 C 145.050781 27.636719 144.113281 28.667969 141.539062 28.667969 C 138.96875 28.667969 138.03125 27.636719 136.441406 26.203125 C 134.847656 24.769531 132.507812 22.964844 128.851562 23.347656 Z M 129.214844 26.804688 C 131.777344 26.535156 132.5625 27.394531 134.105469 28.785156 C 135.648438 30.175781 137.859375 32.144531 141.539062 32.144531 C 145.222656 32.144531 147.433594 30.175781 148.976562 28.785156 C 150.519531 27.394531 151.304688 26.535156 153.867188 26.804688 C 156.425781 27.074219 157.023438 28.078125 158.246094 29.761719 C 159.464844 31.445312 161.210938 33.820312 164.8125 34.585938 C 168.414062 35.351562 170.988281 33.894531 172.789062 32.855469 C 174.589844 31.8125 175.53125 31.136719 177.980469 31.933594 C 180.429688 32.730469 180.800781 33.835938 181.648438 35.738281 C 182.492188 37.636719 183.710938 40.324219 187.074219 41.824219 C 190.4375 43.320312 193.253906 42.421875 195.230469 41.777344 C 197.207031 41.132812 198.273438 40.671875 200.503906 41.960938 C 202.734375 43.246094 202.867188 44.40625 203.296875 46.4375 C 203.726562 48.472656 204.359375 51.363281 207.339844 53.527344 C 210.316406 55.691406 213.253906 55.398438 215.320312 55.179688 C 217.390625 54.960938 218.535156 54.734375 220.449219 56.457031 C 222.363281 58.179688 222.257812 59.332031 222.253906 61.410156 C 222.253906 63.488281 222.261719 66.445312 224.726562 69.183594 C 227.191406 71.917969 230.132812 72.242188 232.199219 72.457031 C 234.265625 72.675781 235.429688 72.691406 236.941406 74.777344 C 238.457031 76.859375 238.105469 77.96875 237.671875 80.003906 C 237.238281 82.035156 236.644531 84.925781 238.484375 88.113281 C 240.328125 91.304688 243.128906 92.234375 245.109375 92.875 C 247.085938 93.519531 248.222656 93.773438 249.269531 96.125 C 250.316406 98.476562 249.742188 99.488281 248.894531 101.386719 C 248.046875 103.289062 246.863281 105.988281 248 109.488281 C 249.136719 112.992188 251.691406 114.492188 253.492188 115.53125 C 255.292969 116.566406 256.351562 117.054688 256.886719 119.570312 C 257.421875 122.089844 256.652344 122.960938 255.425781 124.644531 C 254.203125 126.324219 252.488281 128.71875 252.871094 132.378906 C 253.257812 136.042969 255.441406 138.035156 256.988281 139.421875 C 258.535156 140.8125 259.46875 141.511719 259.46875 144.085938 C 259.46875 146.660156 258.535156 147.359375 256.988281 148.746094 C 255.441406 150.136719 253.257812 152.128906 252.871094 155.789062 C 252.488281 159.453125 254.203125 161.847656 255.425781 163.527344 C 256.652344 165.207031 257.421875 166.082031 256.886719 168.601562 C 256.351562 171.117188 255.292969 171.601562 253.492188 172.640625 C 251.691406 173.679688 249.136719 175.179688 248 178.679688 C 246.863281 182.183594 248.046875 184.882812 248.894531 186.78125 C 249.742188 188.683594 250.316406 189.695312 249.269531 192.046875 C 248.222656 194.398438 247.085938 194.652344 245.109375 195.292969 C 243.128906 195.9375 240.328125 196.867188 238.484375 200.058594 C 236.644531 203.246094 237.238281 206.132812 237.671875 208.167969 C 238.105469 210.203125 238.457031 211.3125 236.941406 213.394531 C 235.429688 215.476562 234.265625 215.496094 232.199219 215.710938 C 230.132812 215.929688 227.191406 216.25 224.726562 218.988281 C 222.261719 221.722656 222.253906 224.683594 222.253906 226.761719 C 222.257812 228.839844 222.363281 229.992188 220.449219 231.714844 C 218.535156 233.4375 217.390625 233.210938 215.320312 232.992188 C 213.253906 232.773438 210.316406 232.480469 207.339844 234.644531 C 204.359375 236.808594 203.726562 239.699219 203.296875 241.734375 C 202.867188 243.765625 202.734375 244.925781 200.503906 246.210938 C 198.273438 247.5 197.207031 247.039062 195.230469 246.394531 C 193.253906 245.75 190.4375 244.851562 187.074219 246.347656 C 183.710938 247.847656 182.492188 250.535156 181.648438 252.433594 C 180.800781 254.335938 180.429688 255.441406 177.980469 256.238281 C 175.53125 257.035156 174.589844 256.359375 172.789062 255.316406 C 170.988281 254.277344 168.414062 252.816406 164.8125 253.582031 C 161.210938 254.347656 159.464844 256.726562 158.246094 258.410156 C 157.023438 260.09375 156.425781 261.097656 153.867188 261.367188 C 151.304688 261.636719 150.519531 260.777344 148.976562 259.386719 C 147.433594 257.992188 145.222656 256.027344 141.539062 256.027344 C 137.859375 256.027344 135.648438 257.992188 134.105469 259.386719 C 132.5625 260.777344 131.777344 261.636719 129.214844 261.367188 C 126.65625 261.097656 126.066406 260.09375 124.84375 258.410156 C 123.625 256.726562 121.867188 254.347656 118.265625 253.582031 C 114.664062 252.816406 112.101562 254.277344 110.300781 255.316406 C 108.503906 256.359375 107.550781 257.035156 105.101562 256.238281 C 102.652344 255.441406 102.277344 254.335938 101.433594 252.433594 C 100.589844 250.535156 99.378906 247.847656 96.015625 246.347656 C 92.652344 244.851562 89.835938 245.75 87.859375 246.394531 C 85.882812 247.039062 84.804688 247.5 82.578125 246.210938 C 80.347656 244.925781 80.214844 243.765625 79.785156 241.734375 C 79.355469 239.699219 78.722656 236.808594 75.742188 234.644531 C 72.765625 232.480469 69.828125 232.773438 67.761719 232.992188 C 65.691406 233.210938 64.546875 233.4375 62.632812 231.714844 C 60.71875 229.992188 60.835938 228.839844 60.835938 226.761719 C 60.835938 224.683594 60.816406 221.722656 58.355469 218.988281 C 55.890625 216.25 52.949219 215.929688 50.882812 215.710938 C 48.8125 215.496094 47.652344 215.476562 46.136719 213.394531 C 44.625 211.3125 44.976562 210.203125 45.410156 208.167969 C 45.84375 206.132812 46.4375 203.246094 44.597656 200.058594 C 42.753906 196.867188 39.949219 195.9375 37.972656 195.292969 C 35.996094 194.652344 34.859375 194.398438 33.8125 192.046875 C 32.765625 189.695312 33.339844 188.683594 34.1875 186.78125 C 35.035156 184.882812 36.21875 182.183594 35.082031 178.679688 C 33.941406 175.179688 31.390625 173.679688 29.589844 172.640625 C 27.789062 171.601562 26.730469 171.117188 26.195312 168.601562 C 25.660156 166.082031 26.429688 165.207031 27.65625 163.527344 C 28.878906 161.847656 30.601562 159.453125 30.21875 155.789062 C 29.832031 152.128906 27.648438 150.136719 26.101562 148.746094 C 24.558594 147.359375 23.621094 146.660156 23.621094 144.085938 C 23.621094 141.511719 24.558594 140.8125 26.101562 139.421875 C 27.648438 138.035156 29.832031 136.042969 30.21875 132.378906 C 30.601562 128.71875 28.878906 126.324219 27.65625 124.644531 C 26.429688 122.960938 25.660156 122.089844 26.195312 119.570312 C 26.730469 117.054688 27.789062 116.566406 29.589844 115.53125 C 31.390625 114.492188 33.941406 112.992188 35.082031 109.488281 C 36.21875 105.988281 35.035156 103.289062 34.1875 101.386719 C 33.339844 99.488281 32.765625 98.476562 33.8125 96.125 C 34.859375 93.773438 35.996094 93.519531 37.972656 92.875 C 39.949219 92.234375 42.753906 91.304688 44.597656 88.113281 C 46.4375 84.925781 45.84375 82.035156 45.410156 80.003906 C 44.976562 77.96875 44.625 76.859375 46.136719 74.777344 C 47.652344 72.691406 48.8125 72.675781 50.882812 72.457031 C 52.949219 72.242188 55.890625 71.917969 58.355469 69.183594 C 60.816406 66.445312 60.835938 63.488281 60.835938 61.410156 C 60.835938 59.332031 60.71875 58.179688 62.632812 56.457031 C 64.546875 54.734375 65.691406 54.960938 67.761719 55.179688 C 69.828125 55.398438 72.765625 55.691406 75.742188 53.527344 C 78.722656 51.363281 79.355469 48.472656 79.785156 46.4375 C 80.214844 44.40625 80.347656 43.246094 82.578125 41.960938 C 84.804688 40.671875 85.882812 41.132812 87.859375 41.777344 C 89.835938 42.421875 92.652344 43.320312 96.015625 41.824219 C 99.378906 40.324219 100.589844 37.636719 101.433594 35.738281 C 102.277344 33.835938 102.652344 32.726562 105.101562 31.933594 C 107.550781 31.136719 108.503906 31.8125 110.300781 32.855469 C 112.101562 33.894531 114.664062 35.351562 118.265625 34.585938 C 121.867188 33.820312 123.625 31.445312 124.84375 29.761719 C 126.066406 28.078125 126.65625 27.074219 129.214844 26.804688 Z M 129.214844 26.804688 " fill-opacity="1" fill-rule="nonzero"/></g><g clip-path="url(#0f9e8fb401)"><path fill="#bca0dd" d="M 129.886719 34.855469 C 126.53125 35.210938 124.78125 37.273438 123.628906 38.863281 C 122.472656 40.457031 121.828125 41.554688 119.519531 42.046875 C 117.210938 42.535156 116.175781 41.800781 114.472656 40.816406 C 112.769531 39.832031 110.328125 38.652344 107.117188 39.695312 C 103.90625 40.738281 102.617188 43.128906 101.820312 44.925781 C 101.019531 46.71875 100.617188 47.921875 98.464844 48.882812 C 96.308594 49.84375 95.144531 49.332031 93.273438 48.722656 C 91.40625 48.113281 88.773438 47.480469 85.851562 49.167969 C 82.929688 50.855469 82.167969 53.453125 81.757812 55.375 C 81.351562 57.300781 81.207031 58.566406 79.296875 59.953125 C 77.390625 61.339844 76.140625 61.082031 74.183594 60.875 C 72.230469 60.667969 69.519531 60.589844 67.011719 62.851562 C 64.503906 65.109375 64.300781 67.8125 64.300781 69.78125 C 64.304688 71.746094 64.425781 73.015625 62.84375 74.765625 C 61.265625 76.519531 59.996094 76.53125 58.042969 76.734375 C 56.085938 76.9375 53.414062 77.417969 51.429688 80.148438 C 49.445312 82.878906 49.816406 85.566406 50.226562 87.488281 C 50.636719 89.410156 51.019531 90.625 49.839844 92.667969 C 48.660156 94.710938 47.417969 94.992188 45.546875 95.597656 C 43.675781 96.203125 41.160156 97.226562 39.789062 100.308594 C 38.417969 103.390625 39.332031 105.945312 40.132812 107.742188 C 40.933594 109.535156 41.5625 110.652344 40.835938 112.894531 C 40.105469 115.140625 38.949219 115.664062 37.246094 116.644531 C 35.542969 117.625 33.300781 119.152344 32.601562 122.453125 C 31.898438 125.753906 33.320312 128.0625 34.476562 129.652344 C 35.632812 131.238281 36.480469 132.199219 36.230469 134.546875 C 35.984375 136.890625 34.957031 137.640625 33.496094 138.957031 C 32.035156 140.269531 30.164062 142.234375 30.164062 145.609375 C 30.164062 148.984375 32.035156 150.949219 33.496094 152.261719 C 34.957031 153.578125 35.984375 154.328125 36.230469 156.671875 C 36.480469 159.019531 35.632812 159.980469 34.476562 161.570312 C 33.320312 163.160156 31.898438 165.464844 32.601562 168.765625 C 33.300781 172.066406 35.542969 173.59375 37.246094 174.574219 C 38.949219 175.554688 40.105469 176.078125 40.835938 178.324219 C 41.5625 180.566406 40.933594 181.683594 40.132812 183.480469 C 39.332031 185.273438 38.417969 187.828125 39.789062 190.910156 C 41.160156 193.992188 43.675781 195.015625 45.546875 195.621094 C 47.417969 196.226562 48.660156 196.507812 49.839844 198.550781 C 51.019531 200.59375 50.636719 201.808594 50.226562 203.730469 C 49.816406 205.652344 49.445312 208.339844 51.429688 211.070312 C 53.414062 213.800781 56.085938 214.28125 58.042969 214.484375 C 59.996094 214.691406 61.265625 214.699219 62.84375 216.453125 C 64.425781 218.207031 64.304688 219.472656 64.300781 221.441406 C 64.300781 223.40625 64.503906 226.109375 67.011719 228.371094 C 69.519531 230.628906 72.230469 230.550781 74.183594 230.34375 C 76.140625 230.136719 77.390625 229.878906 79.296875 231.265625 C 81.207031 232.652344 81.351562 233.921875 81.757812 235.84375 C 82.167969 237.765625 82.929688 240.363281 85.851562 242.054688 C 88.773438 243.742188 91.40625 243.105469 93.273438 242.496094 C 95.144531 241.886719 96.308594 241.378906 98.464844 242.335938 C 100.617188 243.296875 101.019531 244.5 101.820312 246.296875 C 102.617188 248.09375 103.90625 250.484375 107.117188 251.527344 C 110.328125 252.570312 112.769531 251.390625 114.472656 250.40625 C 116.175781 249.421875 117.210938 248.683594 119.519531 249.175781 C 121.828125 249.664062 122.472656 250.765625 123.628906 252.355469 C 124.78125 253.945312 126.53125 256.011719 129.886719 256.363281 C 133.246094 256.714844 135.390625 255.058594 136.851562 253.742188 C 138.3125 252.429688 139.171875 251.484375 141.53125 251.484375 C 143.886719 251.484375 144.746094 252.429688 146.207031 253.742188 C 147.667969 255.058594 149.8125 256.714844 153.171875 256.363281 C 156.527344 256.011719 158.285156 253.945312 159.4375 252.355469 C 160.59375 250.765625 161.230469 249.664062 163.539062 249.175781 C 165.847656 248.683594 166.882812 249.421875 168.585938 250.40625 C 170.289062 251.390625 172.730469 252.570312 175.941406 251.527344 C 179.152344 250.484375 180.441406 248.09375 181.238281 246.296875 C 182.039062 244.5 182.441406 243.296875 184.59375 242.335938 C 186.75 241.378906 187.914062 241.886719 189.785156 242.496094 C 191.652344 243.105469 194.292969 243.742188 197.214844 242.054688 C 200.140625 240.363281 200.902344 237.765625 201.308594 235.84375 C 201.714844 233.921875 201.851562 232.652344 203.761719 231.265625 C 205.667969 229.878906 206.917969 230.136719 208.875 230.34375 C 210.828125 230.550781 213.539062 230.628906 216.046875 228.371094 C 218.554688 226.109375 218.757812 223.40625 218.757812 221.441406 C 218.757812 219.472656 218.636719 218.207031 220.214844 216.453125 C 221.792969 214.699219 223.070312 214.691406 225.027344 214.484375 C 226.980469 214.28125 229.644531 213.800781 231.628906 211.070312 C 233.613281 208.339844 233.253906 205.652344 232.84375 203.730469 C 232.433594 201.808594 232.046875 200.59375 233.226562 198.550781 C 234.40625 196.507812 235.652344 196.226562 237.519531 195.621094 C 239.390625 195.015625 241.898438 193.992188 243.269531 190.910156 C 244.640625 187.828125 243.726562 185.273438 242.925781 183.480469 C 242.125 181.683594 241.496094 180.566406 242.222656 178.324219 C 242.953125 176.078125 244.121094 175.554688 245.820312 174.574219 C 247.523438 173.59375 249.757812 172.066406 250.457031 168.765625 C 251.160156 165.464844 249.742188 163.160156 248.585938 161.570312 C 247.425781 159.980469 246.578125 159.019531 246.828125 156.671875 C 247.074219 154.328125 248.101562 153.578125 249.5625 152.261719 C 251.023438 150.949219 252.894531 148.984375 252.894531 145.609375 C 252.894531 142.234375 251.023438 140.269531 249.5625 138.957031 C 248.101562 137.640625 247.074219 136.890625 246.828125 134.546875 C 246.578125 132.199219 247.425781 131.238281 248.585938 129.652344 C 249.742188 128.0625 251.160156 125.753906 250.457031 122.453125 C 249.757812 119.152344 247.523438 117.625 245.824219 116.644531 C 244.121094 115.664062 242.953125 115.140625 242.222656 112.894531 C 241.496094 110.652344 242.125 109.535156 242.925781 107.742188 C 243.726562 105.945312 244.640625 103.390625 243.269531 100.308594 C 241.898438 97.226562 239.390625 96.203125 237.519531 95.597656 C 235.652344 94.992188 234.40625 94.710938 233.226562 92.667969 C 232.046875 90.625 232.433594 89.410156 232.84375 87.488281 C 233.253906 85.566406 233.613281 82.878906 231.628906 80.148438 C 229.644531 77.417969 226.980469 76.9375 225.027344 76.734375 C 223.070312 76.53125 221.792969 76.519531 220.214844 74.765625 C 218.636719 73.015625 218.757812 71.746094 218.757812 69.78125 C 218.757812 67.8125 218.554688 65.109375 216.046875 62.851562 C 213.539062 60.589844 210.828125 60.667969 208.875 60.875 C 206.917969 61.082031 205.667969 61.339844 203.761719 59.953125 C 201.851562 58.566406 201.714844 57.300781 201.308594 55.375 C 200.902344 53.453125 200.140625 50.855469 197.214844 49.167969 C 194.292969 47.480469 191.652344 48.113281 189.785156 48.722656 C 187.914062 49.332031 186.75 49.84375 184.59375 48.882812 C 182.441406 47.921875 182.039062 46.71875 181.238281 44.925781 C 180.441406 43.128906 179.152344 40.738281 175.941406 39.695312 C 172.730469 38.652344 170.289062 39.832031 168.585938 40.816406 C 166.882812 41.800781 165.847656 42.535156 163.539062 42.046875 C 161.230469 41.554688 160.59375 40.457031 159.4375 38.863281 C 158.285156 37.273438 156.527344 35.210938 153.171875 34.855469 C 149.8125 34.503906 147.667969 36.160156 146.207031 37.476562 C 144.746094 38.792969 143.890625 39.734375 141.53125 39.734375 C 139.171875 39.734375 138.3125 38.792969 136.851562 37.476562 C 135.390625 36.160156 133.246094 34.503906 129.886719 34.855469 Z M 130.222656 38.027344 C 132.570312 37.78125 133.292969 38.566406 134.707031 39.84375 C 136.125 41.121094 138.152344 42.925781 141.53125 42.925781 C 144.90625 42.925781 146.933594 41.121094 148.351562 39.84375 C 149.765625 38.566406 150.488281 37.78125 152.835938 38.027344 C 155.183594 38.273438 155.734375 39.195312 156.851562 40.738281 C 157.972656 42.285156 159.574219 44.464844 162.878906 45.167969 C 166.183594 45.867188 168.542969 44.53125 170.191406 43.578125 C 171.84375 42.621094 172.707031 42 174.953125 42.730469 C 177.199219 43.460938 177.542969 44.476562 178.320312 46.222656 C 179.09375 47.964844 180.210938 50.429688 183.296875 51.804688 C 186.382812 53.175781 188.964844 52.351562 190.78125 51.761719 C 192.59375 51.171875 193.570312 50.746094 195.617188 51.929688 C 197.664062 53.109375 197.78125 54.171875 198.179688 56.039062 C 198.574219 57.902344 199.152344 60.554688 201.886719 62.539062 C 204.617188 64.527344 207.3125 64.253906 209.207031 64.054688 C 211.105469 63.855469 212.15625 63.644531 213.910156 65.226562 C 215.667969 66.808594 215.570312 67.863281 215.570312 69.769531 C 215.566406 71.679688 215.578125 74.390625 217.835938 76.902344 C 220.097656 79.410156 222.792969 79.707031 224.691406 79.90625 C 226.589844 80.105469 227.65625 80.121094 229.042969 82.03125 C 230.429688 83.941406 230.109375 84.960938 229.710938 86.828125 C 229.3125 88.691406 228.769531 91.339844 230.457031 94.265625 C 232.144531 97.191406 234.71875 98.046875 236.53125 98.636719 C 238.347656 99.222656 239.386719 99.457031 240.347656 101.613281 C 241.308594 103.773438 240.78125 104.703125 240.007812 106.445312 C 239.230469 108.183594 238.140625 110.664062 239.1875 113.875 C 240.230469 117.085938 242.570312 118.460938 244.222656 119.414062 C 245.875 120.367188 246.847656 120.8125 247.335938 123.121094 C 247.828125 125.433594 247.121094 126.234375 245.996094 127.777344 C 244.875 129.316406 243.300781 131.511719 243.65625 134.871094 C 244.007812 138.230469 246.011719 140.058594 247.429688 141.332031 C 248.847656 142.609375 249.707031 143.246094 249.707031 145.609375 C 249.707031 147.972656 248.847656 148.609375 247.429688 149.886719 C 246.011719 151.160156 244.007812 152.988281 243.65625 156.347656 C 243.300781 159.707031 244.875 161.902344 245.996094 163.445312 C 247.121094 164.984375 247.828125 165.785156 247.335938 168.097656 C 246.847656 170.40625 245.875 170.851562 244.222656 171.804688 C 242.570312 172.757812 240.230469 174.132812 239.1875 177.34375 C 238.140625 180.558594 239.230469 183.035156 240.007812 184.777344 C 240.78125 186.519531 241.308594 187.449219 240.347656 189.605469 C 239.386719 191.761719 238.347656 191.996094 236.53125 192.585938 C 234.71875 193.171875 232.144531 194.027344 230.457031 196.953125 C 228.769531 199.878906 229.3125 202.527344 229.710938 204.394531 C 230.109375 206.257812 230.429688 207.277344 229.042969 209.1875 C 227.65625 211.097656 226.589844 211.117188 224.691406 211.3125 C 222.792969 211.511719 220.097656 211.808594 217.835938 214.316406 C 215.578125 216.828125 215.566406 219.542969 215.570312 221.449219 C 215.570312 223.355469 215.667969 224.414062 213.910156 225.992188 C 212.15625 227.574219 211.105469 227.363281 209.207031 227.164062 C 207.3125 226.964844 204.617188 226.695312 201.886719 228.679688 C 199.152344 230.664062 198.574219 233.316406 198.179688 235.183594 C 197.78125 237.046875 197.664062 238.109375 195.617188 239.289062 C 193.570312 240.472656 192.59375 240.050781 190.78125 239.457031 C 188.964844 238.867188 186.382812 238.042969 183.296875 239.417969 C 180.210938 240.789062 179.09375 243.253906 178.320312 245 C 177.542969 246.742188 177.199219 247.757812 174.953125 248.488281 C 172.707031 249.21875 171.84375 248.597656 170.191406 247.644531 C 168.542969 246.6875 166.183594 245.351562 162.878906 246.054688 C 159.574219 246.753906 157.972656 248.9375 156.851562 250.480469 C 155.734375 252.023438 155.183594 252.945312 152.835938 253.191406 C 150.488281 253.4375 149.765625 252.652344 148.351562 251.375 C 146.933594 250.097656 144.90625 248.296875 141.53125 248.296875 C 138.152344 248.296875 136.125 250.097656 134.707031 251.375 C 133.292969 252.652344 132.570312 253.4375 130.222656 253.191406 C 127.875 252.945312 127.335938 252.023438 126.214844 250.480469 C 125.09375 248.9375 123.484375 246.753906 120.179688 246.054688 C 116.875 245.351562 114.527344 246.6875 112.875 247.644531 C 111.222656 248.597656 110.351562 249.21875 108.105469 248.488281 C 105.859375 247.757812 105.515625 246.742188 104.738281 245 C 103.964844 243.253906 102.855469 240.789062 99.769531 239.417969 C 96.683594 238.042969 94.101562 238.867188 92.285156 239.457031 C 90.472656 240.050781 89.488281 240.472656 87.441406 239.289062 C 85.394531 238.109375 85.277344 237.046875 84.878906 235.183594 C 84.484375 233.316406 83.90625 230.664062 81.171875 228.679688 C 78.441406 226.695312 75.746094 226.964844 73.851562 227.164062 C 71.953125 227.363281 70.902344 227.574219 69.148438 225.992188 C 67.390625 224.414062 67.496094 223.355469 67.5 221.449219 C 67.5 219.542969 67.480469 216.828125 65.222656 214.316406 C 62.960938 211.808594 60.265625 211.511719 58.367188 211.3125 C 56.472656 211.117188 55.40625 211.097656 54.015625 209.1875 C 52.628906 207.277344 52.949219 206.257812 53.347656 204.394531 C 53.746094 202.527344 54.289062 199.878906 52.601562 196.953125 C 50.914062 194.027344 48.339844 193.171875 46.527344 192.585938 C 44.710938 191.996094 43.671875 191.761719 42.710938 189.605469 C 41.75 187.449219 42.277344 186.519531 43.054688 184.777344 C 43.828125 183.035156 44.917969 180.558594 43.875 177.34375 C 42.828125 174.132812 40.488281 172.757812 38.835938 171.804688 C 37.183594 170.851562 36.210938 170.40625 35.722656 168.097656 C 35.230469 165.785156 35.9375 164.984375 37.0625 163.445312 C 38.183594 161.902344 39.765625 159.707031 39.414062 156.347656 C 39.058594 152.988281 37.054688 151.160156 35.636719 149.886719 C 34.21875 148.609375 33.363281 147.972656 33.363281 145.609375 C 33.363281 143.246094 34.21875 142.609375 35.636719 141.332031 C 37.054688 140.058594 39.058594 138.230469 39.414062 134.871094 C 39.765625 131.511719 38.183594 129.316406 37.0625 127.777344 C 35.9375 126.234375 35.230469 125.433594 35.722656 123.121094 C 36.210938 120.8125 37.183594 120.367188 38.835938 119.414062 C 40.488281 118.460938 42.828125 117.085938 43.875 113.875 C 44.917969 110.664062 43.828125 108.183594 43.054688 106.445312 C 42.277344 104.703125 41.75 103.773438 42.710938 101.613281 C 43.671875 99.457031 44.710938 99.222656 46.527344 98.636719 C 48.339844 98.046875 50.914062 97.191406 52.601562 94.265625 C 54.289062 91.339844 53.746094 88.691406 53.347656 86.828125 C 52.949219 84.960938 52.628906 83.941406 54.015625 82.03125 C 55.40625 80.121094 56.472656 80.105469 58.367188 79.90625 C 60.265625 79.707031 62.960938 79.410156 65.222656 76.902344 C 67.480469 74.390625 67.5 71.679688 67.5 69.769531 C 67.496094 67.863281 67.390625 66.808594 69.148438 65.226562 C 70.902344 63.644531 71.953125 63.855469 73.851562 64.054688 C 75.746094 64.253906 78.441406 64.527344 81.171875 62.539062 C 83.90625 60.554688 84.484375 57.902344 84.878906 56.039062 C 85.277344 54.171875 85.394531 53.109375 87.441406 51.929688 C 89.488281 50.746094 90.472656 51.171875 92.285156 51.761719 C 94.101562 52.351562 96.683594 53.175781 99.769531 51.804688 C 102.855469 50.429688 103.964844 47.964844 104.738281 46.222656 C 105.515625 44.476562 105.859375 43.460938 108.105469 42.730469 C 110.351562 42 111.222656 42.621094 112.875 43.578125 C 114.527344 44.53125 116.875 45.867188 120.179688 45.167969 C 123.484375 44.464844 125.09375 42.285156 126.214844 40.738281 C 127.335938 39.195312 127.875 38.273438 130.222656 38.027344 Z M 130.222656 38.027344 " fill-opacity="1" fill-rule="nonzero"/></g></svg>