<svg xmlns="http://www.w3.org/2000/svg" xmlns:xlink="http://www.w3.org/1999/xlink" width="378" zoomAndPan="magnify" viewBox="0 0 283.5 283.500005" height="378" preserveAspectRatio="xMidYMid meet" version="1.0"><defs><clipPath id="b19f5a05f8"><path d="M 12 12 L 271 12 L 271 271 L 12 271 Z M 12 12 " clip-rule="nonzero"/></clipPath><clipPath id="2d5afccad8"><path d="M -10.34375 233.785156 L 49.074219 -9.875 L 292.734375 49.542969 L 233.320312 293.203125 Z M -10.34375 233.785156 " clip-rule="nonzero"/></clipPath><clipPath id="8cdb41ae50"><path d="M 81.007812 28.777344 C 71.613281 31.523438 64.902344 39.023438 62.734375 47.894531 L 62.734375 47.890625 C 60.5625 56.761719 53.851562 64.261719 44.460938 67.007812 C 30.441406 71.105469 22.398438 85.792969 26.5 99.8125 L 26.492188 99.8125 C 29.027344 108.515625 27.015625 118.285156 20.367188 125.351562 C 17.078125 128.730469 14.757812 132.929688 13.648438 137.511719 C 11.332031 147.019531 14.472656 156.582031 21.066406 162.894531 C 27.660156 169.210938 30.804688 178.773438 28.484375 188.28125 C 25.023438 202.46875 33.722656 216.773438 47.910156 220.234375 L 47.914062 220.234375 L 47.910156 220.242188 C 56.710938 222.398438 64.164062 229.019531 66.960938 238.300781 C 68.242188 242.84375 70.71875 246.957031 74.132812 250.210938 C 81.210938 256.976562 91.0625 259.035156 99.828125 256.480469 C 108.59375 253.929688 118.445312 255.988281 125.519531 262.75 C 136.078125 272.839844 152.816406 272.460938 162.90625 261.902344 L 162.910156 261.902344 L 162.910156 261.910156 C 169.222656 255.3125 178.785156 252.171875 188.292969 254.492188 C 202.484375 257.953125 216.789062 249.253906 220.25 235.066406 C 222.566406 225.558594 229.757812 218.515625 238.519531 215.945312 C 247.277344 213.375 254.472656 206.332031 256.789062 196.824219 C 257.914062 192.246094 257.785156 187.449219 256.425781 182.9375 C 253.773438 173.609375 256.484375 164.003906 262.746094 157.445312 L 262.734375 157.441406 L 262.738281 157.441406 C 272.828125 146.882812 272.449219 130.144531 261.894531 120.050781 C 254.820312 113.289062 252.3125 103.542969 254.472656 94.671875 L 254.46875 94.671875 C 256.625 85.800781 254.121094 76.050781 247.042969 69.289062 C 243.5625 65.960938 239.40625 63.769531 235.039062 62.710938 L 235.042969 62.707031 C 226.484375 60.613281 219.203125 54.296875 216.234375 45.421875 C 215.0625 40.742188 212.601562 36.328125 208.855469 32.75 C 201.777344 25.984375 191.929688 23.925781 183.164062 26.480469 L 183.164062 26.476562 C 174.398438 29.03125 164.546875 26.972656 157.472656 20.210938 C 146.914062 10.117188 130.175781 10.496094 120.082031 21.054688 L 120.082031 21.058594 L 120.082031 21.050781 C 113.816406 27.59375 104.355469 30.738281 94.921875 28.523438 C 90.492188 27.394531 85.710938 27.402344 81.007812 28.777344 " clip-rule="nonzero"/></clipPath><clipPath id="febe277b9a"><path d="M 32 32 L 251 32 L 251 251 L 32 251 Z M 32 32 " clip-rule="nonzero"/></clipPath><clipPath id="3deefdde1a"><path d="M -3.644531 188.863281 L 93.921875 -3.273438 L 286.058594 94.292969 L 188.492188 286.429688 Z M -3.644531 188.863281 " clip-rule="nonzero"/></clipPath><clipPath id="a58677d828"><path d="M 113.039062 35.328125 C 104.644531 35.78125 97.558594 40.738281 94 47.730469 L 94 47.726562 C 90.441406 54.71875 83.355469 59.675781 74.957031 60.128906 C 62.429688 60.800781 52.816406 71.503906 53.492188 84.035156 L 53.492188 84.039062 L 53.484375 84.035156 C 53.898438 91.8125 50.292969 99.589844 43.34375 104.195312 C 39.929688 106.375 37.164062 109.429688 35.335938 113.046875 C 31.53125 120.542969 32.28125 129.15625 36.554688 135.738281 L 36.554688 135.734375 C 40.828125 142.3125 41.578125 150.929688 37.773438 158.425781 C 32.089844 169.613281 36.554688 183.289062 47.742188 188.972656 L 47.746094 188.972656 L 47.742188 188.976562 C 54.679688 192.507812 59.609375 199.511719 60.128906 207.824219 C 60.308594 211.875 61.570312 215.804688 63.789062 219.195312 C 68.378906 226.242188 76.214844 229.902344 84.050781 229.488281 L 84.046875 229.488281 C 91.882812 229.074219 99.714844 232.734375 104.304688 239.777344 C 111.15625 250.292969 125.230469 253.265625 135.746094 246.417969 L 135.746094 246.414062 L 135.746094 246.421875 C 142.324219 242.144531 150.9375 241.394531 158.4375 245.203125 C 169.625 250.886719 183.300781 246.421875 188.980469 235.234375 C 192.789062 227.734375 200.183594 223.257812 208.019531 222.828125 C 215.851562 222.398438 223.25 217.921875 227.058594 210.425781 C 228.898438 206.816406 229.734375 202.78125 229.480469 198.738281 C 229.097656 190.414062 233.25 182.914062 239.773438 178.65625 L 239.769531 178.652344 C 250.285156 171.800781 253.257812 157.726562 246.410156 147.210938 C 241.820312 140.167969 241.640625 131.519531 245.1875 124.523438 L 245.183594 124.523438 C 248.730469 117.527344 248.550781 108.878906 243.960938 101.835938 C 241.703125 98.367188 238.65625 95.71875 235.210938 93.972656 L 235.214844 93.972656 C 228.46875 90.539062 223.617188 83.824219 222.878906 75.816406 C 222.820312 71.671875 221.625 67.496094 219.199219 63.769531 C 214.605469 56.71875 206.773438 53.0625 198.9375 53.476562 C 191.105469 53.890625 183.269531 50.230469 178.679688 43.183594 C 171.832031 32.667969 157.757812 29.699219 147.242188 36.546875 L 147.238281 36.546875 L 147.238281 36.542969 C 140.714844 40.785156 132.183594 41.554688 124.726562 37.851562 C 121.242188 36.035156 117.246094 35.105469 113.039062 35.328125 " clip-rule="nonzero"/></clipPath></defs><g clip-path="url(#b19f5a05f8)"><g clip-path="url(#2d5afccad8)"><g clip-path="url(#8cdb41ae50)"><path fill="#3a6d65" d="M -9.738281 233.417969 L 49.558594 -9.757812 L 292.734375 49.542969 L 233.4375 292.71875 Z M -9.738281 233.417969 " fill-opacity="1" fill-rule="nonzero"/></g></g></g><g clip-path="url(#febe277b9a)"><g clip-path="url(#3deefdde1a)"><g clip-path="url(#a58677d828)"><path fill="#ffffff" d="M -3.066406 188.671875 L 94.304688 -3.078125 L 286.058594 94.292969 L 188.6875 286.046875 Z M -3.066406 188.671875 " fill-opacity="1" fill-rule="nonzero"/></g></g></g></svg>