<svg xmlns="http://www.w3.org/2000/svg" xmlns:xlink="http://www.w3.org/1999/xlink" width="378" zoomAndPan="magnify" viewBox="0 0 283.5 283.500005" height="378" preserveAspectRatio="xMidYMid meet" version="1.0"><defs><clipPath id="f352fcec55"><path d="M 0 0 L 282.964844 0 L 282.964844 282.964844 L 0 282.964844 Z M 0 0 " clip-rule="nonzero"/></clipPath><clipPath id="f6f2b66895"><path d="M 141.484375 0 C 63.34375 0 0 63.34375 0 141.484375 C 0 219.621094 63.34375 282.964844 141.484375 282.964844 C 219.621094 282.964844 282.964844 219.621094 282.964844 141.484375 C 282.964844 63.34375 219.621094 0 141.484375 0 Z M 141.484375 0 " clip-rule="nonzero"/></clipPath><clipPath id="73792873d5"><path d="M 4.925781 4.925781 L 278.039062 4.925781 L 278.039062 278.039062 L 4.925781 278.039062 Z M 4.925781 4.925781 " clip-rule="nonzero"/></clipPath><clipPath id="75b4accf80"><path d="M 141.484375 4.925781 C 66.066406 4.925781 4.925781 66.066406 4.925781 141.484375 C 4.925781 216.902344 66.066406 278.039062 141.484375 278.039062 C 216.902344 278.039062 278.039062 216.902344 278.039062 141.484375 C 278.039062 66.066406 216.902344 4.925781 141.484375 4.925781 Z M 141.484375 4.925781 " clip-rule="nonzero"/></clipPath><clipPath id="52a91481cb"><path d="M 4.925781 4.925781 L 278.03125 4.925781 L 278.03125 278.03125 L 4.925781 278.03125 Z M 4.925781 4.925781 " clip-rule="nonzero"/></clipPath><clipPath id="3d0ce40dfe"><path d="M 141.476562 4.925781 C 66.0625 4.925781 4.925781 66.0625 4.925781 141.476562 C 4.925781 216.894531 66.0625 278.03125 141.476562 278.03125 C 216.894531 278.03125 278.03125 216.894531 278.03125 141.476562 C 278.03125 66.0625 216.894531 4.925781 141.476562 4.925781 Z M 141.476562 4.925781 " clip-rule="nonzero"/></clipPath></defs><g clip-path="url(#f352fcec55)"><g clip-path="url(#f6f2b66895)"><path fill="#39382c" d="M 0 0 L 282.964844 0 L 282.964844 282.964844 L 0 282.964844 Z M 0 0 " fill-opacity="1" fill-rule="nonzero"/></g></g><g clip-path="url(#73792873d5)"><g clip-path="url(#75b4accf80)"><path fill="#6fffe6" d="M 4.925781 4.925781 L 278.039062 4.925781 L 278.039062 278.039062 L 4.925781 278.039062 Z M 4.925781 4.925781 " fill-opacity="1" fill-rule="nonzero"/></g></g><g clip-path="url(#52a91481cb)"><g clip-path="url(#3d0ce40dfe)"><path fill="#ed7a48" d="M 135.515625 6.554688 C 134.039062 6.617188 132.5625 6.707031 131.089844 6.816406 L 130.863281 3.832031 C 132.367188 3.714844 133.875 3.625 135.386719 3.5625 Z M 129.621094 6.9375 C 128.144531 7.066406 126.671875 7.21875 125.199219 7.394531 L 124.84375 4.421875 C 126.347656 4.242188 127.851562 4.085938 129.363281 3.953125 Z M 123.722656 7.578125 C 122.253906 7.773438 120.785156 7.992188 119.324219 8.230469 L 118.835938 5.277344 C 120.332031 5.03125 121.832031 4.808594 123.332031 4.609375 Z M 117.867188 8.480469 C 116.414062 8.738281 114.964844 9.015625 113.523438 9.320312 L 112.90625 6.390625 C 114.382812 6.078125 115.863281 5.792969 117.347656 5.53125 Z M 112.066406 9.636719 C 110.617188 9.957031 109.171875 10.304688 107.734375 10.671875 L 106.988281 7.773438 C 108.460938 7.394531 109.9375 7.039062 111.417969 6.710938 Z M 106.304688 11.050781 C 104.878906 11.433594 103.460938 11.839844 102.046875 12.269531 L 101.175781 9.40625 C 102.617188 8.964844 104.070312 8.550781 105.527344 8.15625 Z M 100.632812 12.710938 C 99.21875 13.15625 97.808594 13.628906 96.410156 14.125 L 95.410156 11.304688 C 96.84375 10.796875 98.28125 10.3125 99.730469 9.855469 Z M 95.015625 14.628906 C 93.625 15.136719 92.246094 15.667969 90.875 16.222656 L 89.753906 13.445312 C 91.15625 12.878906 92.566406 12.335938 93.984375 11.816406 Z M 89.511719 16.785156 C 88.140625 17.355469 86.78125 17.949219 85.433594 18.566406 L 84.1875 15.839844 C 85.566406 15.210938 86.957031 14.605469 88.355469 14.019531 Z M 84.085938 19.1875 C 82.746094 19.820312 81.417969 20.472656 80.097656 21.144531 L 78.734375 18.476562 C 80.082031 17.789062 81.441406 17.121094 82.8125 16.480469 Z M 78.785156 21.824219 C 77.472656 22.511719 76.175781 23.222656 74.886719 23.957031 L 73.40625 21.351562 C 74.722656 20.601562 76.054688 19.878906 77.394531 19.171875 Z M 73.601562 24.695312 C 72.320312 25.441406 71.050781 26.207031 69.796875 26.996094 L 68.207031 24.457031 C 69.488281 23.652344 70.785156 22.871094 72.09375 22.105469 Z M 68.546875 27.789062 C 67.304688 28.589844 66.070312 29.410156 64.851562 30.25 L 63.152344 27.785156 C 64.398438 26.925781 65.65625 26.085938 66.929688 25.269531 Z M 63.636719 31.101562 C 62.425781 31.953125 61.230469 32.828125 60.046875 33.722656 L 58.242188 31.335938 C 59.449219 30.421875 60.671875 29.527344 61.910156 28.652344 Z M 58.871094 34.625 C 57.703125 35.53125 56.546875 36.457031 55.40625 37.398438 L 53.496094 35.09375 C 54.660156 34.128906 55.84375 33.183594 57.039062 32.257812 Z M 54.269531 38.351562 C 53.136719 39.308594 52.023438 40.285156 50.921875 41.277344 L 48.914062 39.058594 C 50.039062 38.042969 51.179688 37.042969 52.335938 36.066406 Z M 49.832031 42.277344 C 48.742188 43.285156 47.671875 44.308594 46.617188 45.347656 L 44.511719 43.214844 C 45.589844 42.152344 46.6875 41.105469 47.796875 40.078125 Z M 45.570312 46.394531 C 44.523438 47.445312 43.5 48.515625 42.492188 49.601562 L 40.296875 47.5625 C 41.328125 46.453125 42.375 45.359375 43.441406 44.285156 Z M 41.488281 50.691406 C 40.492188 51.789062 39.515625 52.902344 38.554688 54.03125 L 36.273438 52.089844 C 37.253906 50.9375 38.253906 49.796875 39.273438 48.675781 Z M 37.601562 55.164062 C 36.652344 56.300781 35.726562 57.457031 34.816406 58.625 L 32.453125 56.785156 C 33.382812 55.589844 34.332031 54.414062 35.296875 53.25 Z M 33.914062 59.796875 C 33.015625 60.976562 32.140625 62.171875 31.28125 63.378906 L 28.839844 61.644531 C 29.714844 60.410156 30.613281 59.191406 31.53125 57.984375 Z M 30.429688 64.59375 C 29.585938 65.8125 28.761719 67.042969 27.957031 68.285156 L 25.441406 66.660156 C 26.265625 65.386719 27.105469 64.132812 27.96875 62.886719 Z M 27.160156 69.53125 C 26.371094 70.785156 25.601562 72.050781 24.851562 73.328125 L 22.269531 71.816406 C 23.035156 70.507812 23.820312 69.214844 24.628906 67.933594 Z M 24.109375 74.613281 C 23.375 75.898438 22.664062 77.199219 21.972656 78.507812 L 19.324219 77.109375 C 20.03125 75.769531 20.757812 74.445312 21.511719 73.128906 Z M 21.289062 79.820312 C 20.609375 81.136719 19.957031 82.464844 19.324219 83.800781 L 16.617188 82.523438 C 17.261719 81.152344 17.933594 79.796875 18.625 78.449219 Z M 18.695312 85.144531 C 18.078125 86.496094 17.480469 87.855469 16.90625 89.222656 L 14.144531 88.0625 C 14.730469 86.664062 15.339844 85.273438 15.976562 83.894531 Z M 16.339844 90.585938 C 15.78125 91.957031 15.25 93.332031 14.734375 94.722656 L 11.925781 93.683594 C 12.449219 92.265625 12.996094 90.855469 13.566406 89.457031 Z M 14.230469 96.113281 C 13.730469 97.511719 13.257812 98.917969 12.804688 100.335938 L 9.953125 99.421875 C 10.414062 97.976562 10.898438 96.539062 11.410156 95.109375 Z M 12.359375 101.75 C 11.929688 103.160156 11.519531 104.578125 11.132812 106.003906 L 8.242188 105.21875 C 8.636719 103.761719 9.054688 102.3125 9.5 100.871094 Z M 10.75 107.433594 C 10.378906 108.867188 10.027344 110.3125 9.703125 111.757812 L 6.78125 111.101562 C 7.113281 109.621094 7.472656 108.148438 7.851562 106.679688 Z M 9.386719 113.214844 C 9.078125 114.65625 8.792969 116.105469 8.535156 117.5625 L 5.585938 117.035156 C 5.851562 115.546875 6.140625 114.066406 6.457031 112.589844 Z M 8.28125 119.015625 C 8.039062 120.476562 7.816406 121.941406 7.621094 123.410156 L 4.652344 123.015625 C 4.855469 121.511719 5.078125 120.015625 5.328125 118.523438 Z M 7.433594 124.886719 C 7.253906 126.359375 7.097656 127.832031 6.964844 129.3125 L 3.980469 129.046875 C 4.117188 127.535156 4.277344 126.027344 4.460938 124.523438 Z M 6.839844 130.777344 C 6.726562 132.25 6.632812 133.726562 6.566406 135.203125 L 3.574219 135.066406 C 3.644531 133.554688 3.738281 132.046875 3.855469 130.542969 Z M 6.507812 136.6875 C 6.457031 138.175781 6.425781 139.667969 6.425781 141.160156 L 3.429688 141.15625 C 3.433594 139.628906 3.460938 138.105469 3.515625 136.582031 Z M 6.429688 142.660156 C 6.441406 144.148438 6.476562 145.640625 6.539062 147.125 L 3.546875 147.25 C 3.484375 145.730469 3.445312 144.207031 3.433594 142.683594 Z M 6.609375 148.605469 C 6.683594 150.082031 6.785156 151.554688 6.910156 153.023438 L 3.925781 153.277344 C 3.800781 151.777344 3.695312 150.269531 3.617188 148.761719 Z M 7.042969 154.488281 C 7.183594 155.96875 7.347656 157.445312 7.539062 158.921875 L 4.570312 159.304688 C 4.375 157.796875 4.207031 156.289062 4.0625 154.773438 Z M 7.738281 160.394531 C 7.941406 161.859375 8.171875 163.324219 8.425781 164.78125 L 5.476562 165.292969 C 5.214844 163.804688 4.980469 162.308594 4.773438 160.808594 Z M 8.6875 166.230469 C 8.957031 167.6875 9.25 169.136719 9.566406 170.582031 L 6.640625 171.222656 C 6.316406 169.746094 6.019531 168.265625 5.742188 166.777344 Z M 9.894531 172.03125 C 10.226562 173.476562 10.585938 174.917969 10.96875 176.347656 L 8.074219 177.121094 C 7.683594 175.65625 7.316406 174.183594 6.976562 172.707031 Z M 11.355469 177.777344 C 11.753906 179.199219 12.171875 180.613281 12.613281 182.023438 L 9.757812 182.917969 C 9.304688 181.480469 8.875 180.03125 8.472656 178.578125 Z M 13.070312 183.4375 C 13.527344 184.847656 14.011719 186.25 14.519531 187.648438 L 11.707031 188.671875 C 11.1875 187.246094 10.691406 185.808594 10.222656 184.367188 Z M 15.035156 189.035156 C 15.554688 190.417969 16.097656 191.792969 16.664062 193.15625 L 13.898438 194.304688 C 13.320312 192.910156 12.761719 191.503906 12.230469 190.089844 Z M 17.238281 194.519531 C 17.820312 195.886719 18.425781 197.242188 19.054688 198.585938 L 16.34375 199.855469 C 15.699219 198.480469 15.082031 197.09375 14.484375 195.699219 Z M 19.691406 199.925781 C 20.332031 201.257812 20.996094 202.582031 21.679688 203.894531 L 19.023438 205.28125 C 18.324219 203.9375 17.648438 202.585938 16.992188 201.222656 Z M 22.371094 205.199219 C 23.070312 206.507812 23.792969 207.800781 24.539062 209.085938 L 21.945312 210.585938 C 21.1875 209.273438 20.449219 207.949219 19.730469 206.613281 Z M 25.289062 210.363281 C 26.042969 211.636719 26.820312 212.898438 27.617188 214.144531 L 25.097656 215.757812 C 24.28125 214.484375 23.484375 213.195312 22.710938 211.894531 Z M 28.421875 215.386719 C 29.234375 216.625 30.066406 217.851562 30.917969 219.0625 L 28.46875 220.785156 C 27.597656 219.546875 26.746094 218.292969 25.917969 217.027344 Z M 31.777344 220.273438 C 32.644531 221.472656 33.527344 222.664062 34.433594 223.835938 L 32.058594 225.664062 C 31.136719 224.464844 30.230469 223.25 29.347656 222.019531 Z M 35.34375 225.003906 C 36.257812 226.167969 37.195312 227.316406 38.148438 228.449219 L 35.859375 230.378906 C 34.882812 229.21875 33.925781 228.046875 32.992188 226.859375 Z M 39.109375 229.574219 C 40.078125 230.699219 41.0625 231.804688 42.066406 232.894531 L 39.863281 234.921875 C 38.835938 233.808594 37.828125 232.679688 36.839844 231.53125 Z M 43.074219 233.980469 C 44.089844 235.058594 45.121094 236.121094 46.171875 237.167969 L 44.058594 239.289062 C 42.984375 238.21875 41.929688 237.136719 40.894531 236.03125 Z M 47.226562 238.207031 C 48.289062 239.242188 49.367188 240.257812 50.460938 241.257812 L 48.441406 243.46875 C 47.324219 242.449219 46.222656 241.410156 45.136719 240.351562 Z M 51.558594 242.25 C 52.664062 243.234375 53.785156 244.203125 54.921875 245.15625 L 53.003906 247.453125 C 51.839844 246.480469 50.695312 245.492188 49.5625 244.484375 Z M 56.066406 246.097656 C 57.210938 247.035156 58.371094 247.953125 59.550781 248.851562 L 57.730469 251.230469 C 56.527344 250.3125 55.339844 249.375 54.167969 248.417969 Z M 60.730469 249.746094 C 61.917969 250.632812 63.121094 251.5 64.335938 252.347656 L 62.625 254.804688 C 61.378906 253.9375 60.152344 253.050781 58.9375 252.144531 Z M 65.558594 253.191406 C 66.78125 254.023438 68.015625 254.835938 69.265625 255.628906 L 67.664062 258.15625 C 66.386719 257.347656 65.121094 256.515625 63.871094 255.664062 Z M 70.523438 256.414062 C 71.78125 257.195312 73.054688 257.953125 74.339844 258.691406 L 72.847656 261.289062 C 71.535156 260.53125 70.234375 259.757812 68.945312 258.960938 Z M 75.632812 259.421875 C 76.921875 260.144531 78.226562 260.847656 79.542969 261.527344 L 78.167969 264.1875 C 76.820312 263.492188 75.488281 262.773438 74.167969 262.035156 Z M 80.859375 262.199219 C 82.183594 262.863281 83.515625 263.507812 84.859375 264.128906 L 83.605469 266.847656 C 82.230469 266.210938 80.867188 265.554688 79.511719 264.871094 Z M 86.210938 264.742188 C 87.5625 265.351562 88.925781 265.9375 90.296875 266.496094 L 89.160156 269.269531 C 87.757812 268.695312 86.367188 268.097656 84.984375 267.476562 Z M 91.664062 267.050781 C 93.042969 267.597656 94.425781 268.121094 95.816406 268.621094 L 94.804688 271.4375 C 93.382812 270.925781 91.96875 270.390625 90.5625 269.832031 Z M 97.214844 269.113281 C 98.621094 269.601562 100.03125 270.0625 101.453125 270.503906 L 100.566406 273.363281 C 99.113281 272.914062 97.671875 272.441406 96.234375 271.941406 Z M 102.863281 270.933594 C 104.277344 271.355469 105.699219 271.753906 107.128906 272.125 L 106.371094 275.023438 C 104.910156 274.640625 103.453125 274.234375 102.007812 273.800781 Z M 108.5625 272.496094 C 110.003906 272.855469 111.453125 273.191406 112.90625 273.503906 L 112.273438 276.433594 C 110.789062 276.113281 109.308594 275.769531 107.835938 275.398438 Z M 114.363281 273.808594 C 115.804688 274.105469 117.253906 274.375 118.707031 274.621094 L 118.207031 277.574219 C 116.71875 277.320312 115.238281 277.046875 113.765625 276.746094 Z M 120.167969 274.863281 C 121.632812 275.09375 123.101562 275.300781 124.574219 275.484375 L 124.203125 278.457031 C 122.695312 278.269531 121.195312 278.054688 119.699219 277.820312 Z M 126.054688 275.660156 C 127.519531 275.828125 128.992188 275.972656 130.464844 276.089844 L 130.226562 279.074219 C 128.71875 278.953125 127.214844 278.808594 125.714844 278.636719 Z M 131.9375 276.203125 C 133.410156 276.304688 134.890625 276.382812 136.371094 276.4375 L 136.261719 279.429688 C 134.746094 279.375 133.234375 279.292969 131.726562 279.1875 Z M 137.859375 276.484375 C 139.0625 276.515625 140.269531 276.53125 141.476562 276.53125 L 142.347656 276.53125 L 142.355469 279.523438 L 141.476562 279.527344 C 140.246094 279.527344 139.011719 279.511719 137.78125 279.480469 Z M 143.835938 276.511719 C 145.324219 276.488281 146.808594 276.4375 148.292969 276.363281 L 148.441406 279.355469 C 146.925781 279.429688 145.40625 279.480469 143.886719 279.507812 Z M 149.773438 276.28125 C 151.242188 276.195312 152.714844 276.082031 154.179688 275.945312 L 154.457031 278.925781 C 152.960938 279.066406 151.457031 279.179688 149.953125 279.273438 Z M 155.644531 275.800781 C 157.128906 275.644531 158.605469 275.464844 160.082031 275.261719 L 160.492188 278.230469 C 158.984375 278.4375 157.472656 278.621094 155.957031 278.777344 Z M 161.550781 275.050781 C 163.011719 274.835938 164.472656 274.59375 165.925781 274.328125 L 166.464844 277.273438 C 164.976562 277.542969 163.488281 277.792969 161.992188 278.015625 Z M 167.371094 274.054688 C 168.828125 273.769531 170.28125 273.464844 171.726562 273.132812 L 172.394531 276.050781 C 170.917969 276.390625 169.433594 276.703125 167.941406 276.992188 Z M 173.171875 272.792969 C 174.613281 272.449219 176.046875 272.078125 177.472656 271.683594 L 178.269531 274.570312 C 176.8125 274.972656 175.34375 275.351562 173.871094 275.707031 Z M 178.894531 271.28125 C 180.316406 270.875 181.730469 270.441406 183.140625 269.984375 L 184.0625 272.835938 C 182.621094 273.300781 181.175781 273.742188 179.722656 274.160156 Z M 184.550781 269.519531 C 185.957031 269.046875 187.351562 268.550781 188.742188 268.03125 L 189.789062 270.835938 C 188.371094 271.367188 186.941406 271.875 185.503906 272.359375 Z M 190.125 267.507812 C 191.503906 266.976562 192.871094 266.417969 194.230469 265.84375 L 195.402344 268.597656 C 194.011719 269.1875 192.613281 269.757812 191.203125 270.300781 Z M 195.597656 265.253906 C 196.953125 264.660156 198.304688 264.042969 199.640625 263.402344 L 200.933594 266.105469 C 199.566406 266.757812 198.1875 267.390625 196.796875 267.996094 Z M 200.976562 262.753906 C 202.300781 262.101562 203.617188 261.429688 204.925781 260.734375 L 206.332031 263.375 C 205 264.085938 203.652344 264.777344 202.296875 265.445312 Z M 206.226562 260.03125 C 207.527344 259.316406 208.816406 258.585938 210.09375 257.828125 L 211.617188 260.40625 C 210.3125 261.179688 208.992188 261.929688 207.664062 262.65625 Z M 211.363281 257.070312 C 212.632812 256.300781 213.882812 255.511719 215.125 254.703125 L 216.761719 257.214844 C 215.492188 258.039062 214.210938 258.847656 212.917969 259.628906 Z M 216.359375 253.890625 C 217.59375 253.066406 218.8125 252.226562 220.015625 251.363281 L 221.761719 253.796875 C 220.527344 254.679688 219.28125 255.539062 218.023438 256.382812 Z M 221.21875 250.492188 C 222.410156 249.617188 223.59375 248.722656 224.757812 247.808594 L 226.605469 250.164062 C 225.414062 251.097656 224.207031 252.011719 222.988281 252.90625 Z M 225.917969 246.886719 C 227.074219 245.960938 228.214844 245.015625 229.339844 244.050781 L 231.289062 246.324219 C 230.136719 247.308594 228.972656 248.277344 227.792969 249.222656 Z M 230.457031 243.082031 C 231.570312 242.105469 232.671875 241.109375 233.75 240.097656 L 235.796875 242.28125 C 234.691406 243.316406 233.570312 244.332031 232.433594 245.332031 Z M 234.828125 239.078125 C 235.898438 238.054688 236.953125 237.011719 237.988281 235.953125 L 240.128906 238.050781 C 239.066406 239.132812 237.992188 240.195312 236.898438 241.242188 Z M 239.019531 234.890625 C 240.042969 233.820312 241.050781 232.734375 242.039062 231.632812 L 244.269531 233.632812 C 243.257812 234.757812 242.226562 235.867188 241.179688 236.960938 Z M 243.023438 230.523438 C 244 229.410156 244.960938 228.28125 245.898438 227.132812 L 248.214844 229.035156 C 247.253906 230.207031 246.273438 231.359375 245.273438 232.5 Z M 246.832031 225.984375 C 247.761719 224.832031 248.667969 223.660156 249.558594 222.476562 L 251.953125 224.273438 C 251.042969 225.484375 250.117188 226.679688 249.167969 227.859375 Z M 250.441406 221.289062 C 251.316406 220.09375 252.175781 218.882812 253.011719 217.660156 L 255.484375 219.351562 C 254.628906 220.601562 253.753906 221.835938 252.855469 223.058594 Z M 253.84375 216.433594 C 254.664062 215.203125 255.46875 213.957031 256.25 212.703125 L 258.792969 214.28125 C 257.992188 215.566406 257.171875 216.839844 256.332031 218.097656 Z M 257.023438 211.441406 C 257.792969 210.171875 258.539062 208.890625 259.269531 207.601562 L 261.878906 209.066406 C 261.132812 210.390625 260.371094 211.699219 259.582031 212.992188 Z M 259.988281 206.300781 C 260.699219 205.003906 261.390625 203.695312 262.054688 202.378906 L 264.726562 203.730469 C 264.046875 205.078125 263.339844 206.417969 262.613281 207.742188 Z M 262.71875 201.054688 C 263.371094 199.722656 264.003906 198.382812 264.613281 197.03125 L 267.34375 198.265625 C 266.71875 199.644531 266.074219 201.015625 265.402344 202.375 Z M 265.21875 195.675781 C 265.8125 194.320312 266.386719 192.957031 266.933594 191.582031 L 269.714844 192.691406 C 269.152344 194.097656 268.570312 195.492188 267.960938 196.878906 Z M 267.476562 190.207031 C 268.011719 188.824219 268.523438 187.433594 269.011719 186.035156 L 271.835938 187.023438 C 271.339844 188.453125 270.816406 189.875 270.269531 191.285156 Z M 269.492188 184.632812 C 269.964844 183.226562 270.414062 181.8125 270.84375 180.394531 L 273.710938 181.253906 C 273.273438 182.707031 272.8125 184.152344 272.328125 185.589844 Z M 271.257812 178.980469 C 271.667969 177.558594 272.054688 176.132812 272.417969 174.695312 L 275.320312 175.429688 C 274.949219 176.898438 274.554688 178.355469 274.136719 179.808594 Z M 272.773438 173.257812 C 273.121094 171.8125 273.445312 170.359375 273.746094 168.902344 L 276.679688 169.507812 C 276.371094 170.996094 276.042969 172.480469 275.683594 173.960938 Z M 274.039062 167.457031 C 274.320312 166.007812 274.578125 164.558594 274.8125 163.101562 L 277.769531 163.574219 C 277.527344 165.066406 277.265625 166.550781 276.976562 168.03125 Z M 275.039062 161.636719 C 275.257812 160.167969 275.453125 158.695312 275.625 157.214844 L 278.601562 157.5625 C 278.425781 159.070312 278.226562 160.578125 278 162.078125 Z M 275.789062 155.734375 C 275.945312 154.269531 276.074219 152.804688 276.179688 151.332031 L 279.167969 151.546875 C 279.058594 153.050781 278.925781 154.550781 278.769531 156.046875 Z M 276.277344 149.859375 C 276.367188 148.378906 276.433594 146.898438 276.476562 145.414062 L 279.46875 145.5 C 279.425781 147.015625 279.359375 148.53125 279.265625 150.042969 Z M 276.511719 143.9375 L 276.535156 141.464844 L 276.519531 139.425781 L 279.511719 139.402344 L 279.527344 141.492188 L 279.507812 143.964844 Z M 276.488281 137.945312 C 276.449219 136.460938 276.386719 134.976562 276.300781 133.496094 L 279.289062 133.324219 C 279.378906 134.835938 279.441406 136.351562 279.480469 137.871094 Z M 276.207031 132.023438 C 276.105469 130.554688 275.980469 129.089844 275.832031 127.625 L 278.8125 127.320312 C 278.964844 128.816406 279.089844 130.316406 279.195312 131.816406 Z M 275.671875 126.140625 C 275.503906 124.660156 275.3125 123.1875 275.097656 121.71875 L 278.0625 121.28125 C 278.28125 122.785156 278.476562 124.292969 278.648438 125.804688 Z M 274.875 120.253906 C 274.644531 118.792969 274.390625 117.339844 274.113281 115.890625 L 277.054688 115.328125 C 277.339844 116.808594 277.597656 118.292969 277.832031 119.785156 Z M 273.828125 114.449219 C 273.53125 112.988281 273.210938 111.535156 272.867188 110.089844 L 275.78125 109.398438 C 276.132812 110.875 276.460938 112.359375 276.761719 113.851562 Z M 272.515625 108.648438 C 272.15625 107.214844 271.773438 105.785156 271.371094 104.359375 L 274.25 103.539062 C 274.664062 104.996094 275.054688 106.457031 275.421875 107.921875 Z M 270.957031 102.945312 C 270.535156 101.523438 270.089844 100.109375 269.621094 98.703125 L 272.460938 97.757812 C 272.941406 99.195312 273.394531 100.640625 273.828125 102.089844 Z M 269.140625 97.300781 C 268.65625 95.898438 268.148438 94.507812 267.621094 93.125 L 270.414062 92.050781 C 270.957031 93.464844 271.476562 94.886719 271.972656 96.320312 Z M 267.082031 91.746094 C 266.539062 90.371094 265.96875 89.003906 265.378906 87.648438 L 268.125 86.453125 C 268.730469 87.839844 269.308594 89.238281 269.867188 90.644531 Z M 264.78125 86.289062 C 264.171875 84.9375 263.546875 83.597656 262.894531 82.261719 L 265.585938 80.949219 C 266.25 82.308594 266.894531 83.683594 267.511719 85.066406 Z M 262.238281 80.9375 C 261.574219 79.617188 260.886719 78.304688 260.179688 77.007812 L 262.8125 75.574219 C 263.535156 76.902344 264.234375 78.242188 264.914062 79.59375 Z M 259.464844 75.707031 C 258.742188 74.414062 257.996094 73.132812 257.230469 71.859375 L 259.796875 70.3125 C 260.578125 71.613281 261.339844 72.921875 262.078125 74.246094 Z M 256.460938 70.597656 C 255.679688 69.335938 254.882812 68.089844 254.0625 66.859375 L 256.558594 65.203125 C 257.394531 66.460938 258.210938 67.734375 259.007812 69.023438 Z M 253.238281 65.628906 C 252.40625 64.402344 251.550781 63.191406 250.675781 61.992188 L 253.097656 60.230469 C 253.988281 61.453125 254.863281 62.691406 255.714844 63.945312 Z M 249.796875 60.800781 C 248.914062 59.613281 248.007812 58.441406 247.082031 57.285156 L 249.425781 55.414062 C 250.367188 56.597656 251.292969 57.796875 252.199219 59.011719 Z M 246.152344 56.132812 C 245.21875 54.984375 244.261719 53.851562 243.285156 52.734375 L 245.542969 50.765625 C 246.539062 51.90625 247.515625 53.066406 248.472656 54.238281 Z M 242.308594 51.625 C 241.320312 50.519531 240.316406 49.429688 239.296875 48.355469 L 241.464844 46.289062 C 242.507812 47.386719 243.535156 48.5 244.542969 49.628906 Z M 238.269531 47.289062 C 237.234375 46.226562 236.183594 45.183594 235.117188 44.15625 L 237.195312 42 C 238.285156 43.046875 239.359375 44.117188 240.414062 45.199219 Z M 234.042969 43.132812 C 232.964844 42.117188 231.871094 41.121094 230.757812 40.140625 L 232.738281 37.894531 C 233.875 38.894531 234.996094 39.917969 236.097656 40.953125 Z M 229.640625 39.167969 C 228.519531 38.199219 227.382812 37.25 226.230469 36.320312 L 228.109375 33.988281 C 229.289062 34.941406 230.453125 35.910156 231.597656 36.898438 Z M 225.074219 35.398438 C 223.910156 34.480469 222.730469 33.582031 221.539062 32.703125 L 223.316406 30.292969 C 224.535156 31.191406 225.738281 32.109375 226.929688 33.046875 Z M 220.34375 31.828125 C 219.140625 30.960938 217.921875 30.117188 216.691406 29.289062 L 218.363281 26.804688 C 219.621094 27.648438 220.863281 28.511719 222.09375 29.398438 Z M 215.460938 28.472656 C 214.222656 27.660156 212.972656 26.867188 211.707031 26.097656 L 213.265625 23.539062 C 214.558594 24.328125 215.835938 25.136719 217.101562 25.96875 Z M 210.4375 25.332031 C 209.164062 24.574219 207.875 23.835938 206.578125 23.121094 L 208.023438 20.496094 C 209.351562 21.230469 210.667969 21.984375 211.96875 22.757812 Z M 205.277344 22.410156 C 203.972656 21.710938 202.660156 21.035156 201.335938 20.378906 L 202.664062 17.695312 C 204.019531 18.367188 205.359375 19.058594 206.691406 19.773438 Z M 200.003906 19.726562 C 198.667969 19.085938 197.320312 18.464844 195.964844 17.863281 L 197.171875 15.125 C 198.5625 15.738281 199.9375 16.371094 201.304688 17.03125 Z M 194.601562 17.273438 C 193.242188 16.691406 191.875 16.132812 190.5 15.59375 L 191.585938 12.804688 C 192.992188 13.351562 194.390625 13.925781 195.78125 14.519531 Z M 189.117188 15.066406 C 187.730469 14.542969 186.335938 14.042969 184.929688 13.566406 L 185.894531 10.730469 C 187.328125 11.21875 188.753906 11.726562 190.171875 12.261719 Z M 183.519531 13.09375 C 182.113281 12.636719 180.699219 12.199219 179.28125 11.785156 L 180.117188 8.910156 C 181.570312 9.332031 183.015625 9.777344 184.453125 10.25 Z M 177.859375 11.378906 C 176.433594 10.980469 175 10.609375 173.5625 10.257812 L 174.273438 7.347656 C 175.742188 7.707031 177.207031 8.089844 178.664062 8.496094 Z M 172.117188 9.914062 C 170.671875 9.578125 169.21875 9.265625 167.761719 8.980469 L 168.34375 6.042969 C 169.832031 6.335938 171.316406 6.652344 172.792969 6.996094 Z M 166.316406 8.703125 C 164.863281 8.433594 163.410156 8.1875 161.945312 7.964844 L 162.398438 5.003906 C 163.890625 5.230469 165.378906 5.480469 166.863281 5.757812 Z M 160.480469 7.75 C 159.007812 7.542969 157.527344 7.359375 156.046875 7.199219 L 156.367188 4.222656 C 157.882812 4.386719 159.390625 4.570312 160.898438 4.785156 Z M 154.574219 7.050781 C 153.109375 6.910156 151.640625 6.792969 150.171875 6.699219 L 150.359375 3.710938 C 151.863281 3.804688 153.363281 3.925781 154.863281 4.070312 Z M 148.695312 6.613281 C 147.210938 6.535156 145.726562 6.480469 144.238281 6.453125 L 144.300781 3.457031 C 145.820312 3.488281 147.335938 3.542969 148.851562 3.621094 Z M 142.753906 6.429688 L 141.472656 6.421875 C 139.980469 6.421875 138.492188 6.449219 137 6.496094 L 136.902344 3.503906 C 138.425781 3.453125 139.953125 3.429688 141.484375 3.429688 L 142.765625 3.433594 Z M 142.753906 6.429688 " fill-opacity="1" fill-rule="nonzero"/></g></g></svg>