<svg xmlns="http://www.w3.org/2000/svg" xmlns:xlink="http://www.w3.org/1999/xlink" width="378" zoomAndPan="magnify" viewBox="0 0 283.5 283.500005" height="378" preserveAspectRatio="xMidYMid meet" version="1.0"><defs><clipPath id="f8fecf2ef8"><path d="M 148 86.402344 L 164 86.402344 L 164 188 L 148 188 Z M 148 86.402344 " clip-rule="nonzero"/></clipPath><clipPath id="53279df95b"><path d="M 89.007812 96 L 177 96 L 177 196.460938 L 89.007812 196.460938 Z M 89.007812 96 " clip-rule="nonzero"/></clipPath><clipPath id="ed9b2cf19b"><path d="M 91 95 L 193.824219 95 L 193.824219 180 L 91 180 Z M 91 95 " clip-rule="nonzero"/></clipPath></defs><path fill="#8ccaef" d="M 117.246094 148.980469 L 117.246094 187.765625 L 105.804688 181.164062 L 103.316406 179.730469 L 102.085938 179.003906 L 102.085938 148.980469 Z M 117.246094 148.980469 " fill-opacity="1" fill-rule="nonzero"/><path fill="#8ccaef" d="M 125.253906 124.550781 L 140.4375 124.550781 L 140.4375 191.816406 L 125.253906 191.816406 Z M 125.253906 124.550781 " fill-opacity="1" fill-rule="nonzero"/><g clip-path="url(#f8fecf2ef8)"><path fill="#8ccaef" d="M 163.605469 86.402344 L 163.605469 178.742188 L 156.015625 183.253906 L 148.421875 187.789062 L 148.421875 86.402344 Z M 163.605469 86.402344 " fill-opacity="1" fill-rule="nonzero"/></g><g clip-path="url(#53279df95b)"><path fill="#474fa2" d="M 175.554688 120.390625 L 175.289062 120.234375 L 173.265625 119.070312 C 172.515625 120.125 171.679688 121.246094 170.777344 122.4375 L 172.429688 123.40625 L 172.429688 138.8125 C 173.925781 137.207031 175.3125 135.621094 176.585938 134.125 L 176.585938 122.214844 C 176.585938 121.445312 176.191406 120.761719 175.554688 120.390625 Z M 174.101562 140.464844 C 173.550781 141.035156 173 141.628906 172.429688 142.222656 L 172.429688 169.121094 L 165.785156 172.953125 L 163.605469 174.207031 L 148.421875 182.96875 L 146.246094 184.222656 L 140.4375 187.589844 L 133.152344 191.792969 L 132.867188 191.96875 L 132.582031 191.792969 L 125.277344 187.566406 L 117.265625 182.945312 L 111.28125 179.511719 L 108.839844 178.101562 L 106.464844 176.738281 L 102.085938 174.207031 L 99.820312 172.886719 L 97.355469 171.457031 L 94.957031 170.070312 L 93.261719 169.101562 L 93.261719 123.382812 L 132.84375 100.535156 L 146.246094 108.285156 L 146.246094 103.460938 L 133.878906 96.332031 C 133.242188 95.957031 132.449219 95.957031 131.8125 96.332031 L 90.136719 120.390625 C 89.5 120.761719 89.105469 121.445312 89.105469 122.195312 L 89.105469 170.3125 C 89.105469 171.058594 89.5 171.742188 90.136719 172.117188 L 91.742188 173.039062 L 94.230469 174.492188 L 100.457031 178.082031 L 100.898438 178.324219 L 102.085938 179.003906 L 103.316406 179.710938 L 105.804688 181.140625 L 117.246094 187.765625 L 131.8125 196.175781 C 132.140625 196.351562 132.492188 196.460938 132.84375 196.460938 C 133.199219 196.460938 133.570312 196.371094 133.878906 196.175781 L 148.421875 187.789062 L 157.269531 182.679688 L 163.582031 179.027344 L 165.761719 177.773438 L 175.53125 172.136719 C 176.167969 171.761719 176.566406 171.082031 176.566406 170.332031 L 176.566406 137.710938 C 175.792969 138.613281 174.957031 139.539062 174.101562 140.464844 Z M 174.101562 140.464844 " fill-opacity="1" fill-rule="nonzero"/></g><g clip-path="url(#ed9b2cf19b)"><path fill="#3c84ac" d="M 193.726562 120.390625 L 188.316406 117.484375 C 187.414062 118.957031 183.804688 125.539062 176.585938 134.101562 C 175.3125 135.621094 173.925781 137.183594 172.429688 138.789062 C 169.832031 141.585938 166.90625 144.492188 163.605469 147.464844 C 159.226562 151.382812 154.1875 155.386719 148.421875 159.261719 C 145.894531 160.957031 143.230469 162.652344 140.414062 164.28125 C 135.75 166.988281 130.710938 169.585938 125.230469 171.984375 C 122.65625 173.105469 119.996094 174.207031 117.222656 175.21875 C 114.515625 176.230469 111.699219 177.199219 108.796875 178.101562 C 106.992188 178.675781 105.164062 179.203125 103.296875 179.730469 L 102.0625 179.027344 L 100.875 178.34375 L 100.433594 178.101562 L 94.207031 174.515625 L 91.742188 173.039062 C 92.007812 172.972656 92.292969 172.90625 92.558594 172.820312 C 94.1875 172.378906 95.769531 171.941406 97.355469 171.476562 C 98.960938 170.992188 100.546875 170.507812 102.085938 169.980469 C 107.476562 168.199219 112.515625 166.214844 117.265625 164.082031 C 120.039062 162.828125 122.703125 161.527344 125.277344 160.1875 C 130.820312 157.28125 135.859375 154.199219 140.457031 151.050781 C 143.296875 149.09375 145.960938 147.089844 148.46875 145.109375 C 154.496094 140.289062 159.511719 135.445312 163.648438 130.953125 C 166.445312 127.894531 168.820312 125.035156 170.820312 122.4375 C 171.722656 121.246094 172.558594 120.125 173.308594 119.070312 C 175.246094 116.359375 176.675781 114.09375 177.644531 112.507812 C 177.773438 112.3125 177.886719 112.113281 177.996094 111.914062 L 176.035156 110.859375 L 174.453125 110.023438 L 172.121094 108.765625 L 172.757812 108.371094 L 191.417969 96.792969 L 192.933594 95.847656 L 193.023438 98.488281 Z M 193.726562 120.390625 " fill-opacity="1" fill-rule="nonzero"/></g></svg>